<svg width="112" height="32" viewBox="0 0 112 32" fill="none" xmlns="http://www.w3.org/2000/svg">
<path d="M20.0376 30.2911C25.3455 29.3534 29.7295 28.5775 29.7798 28.5669L29.8714 28.5474L24.8602 22.5868C22.1041 19.3085 19.8491 16.6135 19.8491 16.5979C19.8491 16.5685 25.0235 2.31922 25.0526 2.26853C25.0623 2.25158 28.5837 8.33113 33.5886 17.0058C38.2743 25.1271 42.1375 31.8232 42.1734 31.8859L42.2387 32L26.3128 31.9979L10.3869 31.9959L20.0376 30.2911ZM81.1115 28.8495C78.6873 28.6941 77.2773 27.3137 76.9037 24.7299C76.8043 24.0425 76.8039 24.0247 76.7938 19.5625L76.7839 15.2439H77.8568H78.9297L78.9382 19.4211C78.9458 23.186 78.9506 23.6274 78.9866 23.8922C79.1326 24.9671 79.4235 25.6899 79.9186 26.2087C80.3148 26.6239 80.7787 26.8671 81.4208 26.9961C81.7238 27.0569 82.5856 27.057 82.8618 26.9963C83.5128 26.8531 84.0345 26.5698 84.4948 26.1097C85.0194 25.5852 85.4075 24.8412 85.5953 23.9998L85.6586 23.7163L85.6657 19.5036L85.6727 15.291H86.7681H87.8635V21.9134V28.5357H86.7794H85.6953V27.485C85.6953 26.7711 85.6875 26.4369 85.6709 26.4424C85.6575 26.4469 85.6018 26.5321 85.5472 26.6317C85.1736 27.313 84.5512 27.9361 83.8691 28.3115C83.0516 28.7614 82.2317 28.9214 81.1115 28.8495ZM105.718 28.8388C104.862 28.7745 103.961 28.4803 103.224 28.0247C101.672 27.0646 100.754 25.4819 100.485 23.3038C100.392 22.5501 100.38 21.5377 100.458 20.8972C100.632 19.4662 101.194 18.0614 101.995 17.0585C102.2 16.8014 102.666 16.3357 102.923 16.1305C103.617 15.5762 104.429 15.1886 105.291 15C105.794 14.8901 106.678 14.8385 107.212 14.8879C108.553 15.0122 109.782 15.6434 110.617 16.637C111.465 17.6465 111.932 19.057 111.991 20.7939C112.001 21.0661 112.003 21.5433 111.996 21.8544L111.984 22.42L107.289 22.426L102.593 22.4319V22.6415C102.593 23.2794 102.748 24.0059 103.016 24.6241C103.247 25.1572 103.645 25.7393 103.971 26.021C104.639 26.5986 105.457 26.9443 106.352 27.0275C106.684 27.0583 107.529 27.0259 107.907 26.9678C108.986 26.802 110.011 26.3789 110.84 25.7579C110.937 25.6849 111.03 25.6166 111.047 25.6063C111.071 25.5911 111.077 25.782 111.076 26.5843L111.075 27.5812L110.854 27.7184C109.917 28.2979 108.843 28.67 107.707 28.8092C107.368 28.8508 106.123 28.8693 105.718 28.8388ZM109.804 20.4311C109.804 19.3626 109.354 18.1755 108.717 17.5643C108.262 17.1281 107.712 16.8615 107.059 16.7603C106.75 16.7124 106.098 16.7309 105.772 16.7967C105.083 16.936 104.513 17.2389 104.016 17.7302C103.493 18.2472 103.1 18.8751 102.854 19.5906C102.765 19.8479 102.661 20.2702 102.629 20.5052L102.614 20.6171H106.209H109.804V20.4311ZM46.1077 28.5062C46.1132 28.49 47.7077 24.301 49.6511 19.1973L53.1846 9.91787L54.3199 9.9178L55.4552 9.91773L55.5494 10.1593C55.8373 10.8975 62.6232 28.5155 62.6232 28.5247C62.6232 28.5307 62.0797 28.5356 61.4154 28.5355L60.2076 28.5352L59.2295 25.9313L58.2515 23.3274L54.3135 23.3273L50.3755 23.3273L50.3413 23.4157C50.3224 23.4643 49.9046 24.6359 49.4127 26.0194L48.5183 28.5348L47.308 28.5352C46.35 28.5355 46.0997 28.5295 46.1077 28.5062ZM57.5327 21.3402C57.5327 21.3361 56.8745 19.5518 56.0701 17.3751C54.5651 13.3028 54.4809 13.0578 54.362 12.404C54.3063 12.0975 54.2781 12.0889 54.245 12.3687C54.2213 12.5686 54.1187 13.0161 54.0397 13.2642C54.0004 13.3874 53.3227 15.2475 52.5336 17.3978C51.7445 19.5481 51.0989 21.3165 51.0989 21.3276C51.0989 21.3386 52.5465 21.3477 54.3158 21.3477C56.0851 21.3477 57.5327 21.3443 57.5327 21.3402ZM63.3538 28.1965V27.8574L67.2772 22.4638L71.2007 17.0703L67.6484 17.0585L64.0961 17.0467L64.09 16.1453L64.0838 15.2439H69.2217H74.3596V15.5483V15.8528L70.4356 21.2757C68.2775 24.2584 66.5117 26.7037 66.5117 26.7098C66.5117 26.716 68.2563 26.721 70.3885 26.721H74.2653V27.6283V28.5357H68.8095H63.3538V28.1965ZM92.1448 28.5199C92.1362 28.5113 92.1291 25.5206 92.1291 21.874V15.2439H93.2014H94.2737V16.6107C94.2737 17.3625 94.2828 17.9776 94.294 17.9776C94.3052 17.9776 94.3574 17.8546 94.41 17.7042C94.6511 17.0149 95.0692 16.3709 95.6078 15.8591C96.093 15.398 96.6476 15.1223 97.302 15.0168C97.4859 14.9871 97.6414 14.9815 98.0091 14.991C98.4708 15.0031 98.7122 15.0368 98.993 15.1286L99.0814 15.1575V16.2705V17.3836L98.828 17.2568C98.3805 17.0327 97.9389 16.9441 97.4081 16.9717C97.0626 16.9896 96.8359 17.034 96.5597 17.1377C95.9914 17.3509 95.5305 17.7274 95.2084 18.2412C94.7421 18.9851 94.4096 19.9413 94.3115 20.8201C94.2939 20.9778 94.2835 22.2623 94.2794 24.7944L94.2732 28.5357H93.2169C92.6359 28.5357 92.1534 28.5286 92.1448 28.5199ZM0.924744 28.4734C0.924744 28.465 3.28598 24.3661 6.17194 19.3647L11.4191 10.2712L17.5341 5.1395C20.8974 2.31706 23.6582 0.00433378 23.6692 0.000115936C23.6803 -0.00410107 23.6361 0.107252 23.5709 0.24757C23.5058 0.387887 20.5178 6.79685 16.9309 14.4897L10.4093 28.4767L5.66703 28.4827C3.05877 28.486 0.924744 28.4818 0.924744 28.4734Z" fill="#262626"/>
</svg>
