<svg width="73" height="20" viewBox="0 0 73 20" fill="none" xmlns="http://www.w3.org/2000/svg">
<g clip-path="url(#clip0_565_1352)">
<path d="M22.7314 9.615C22.7314 12.885 24.8101 15.165 27.6905 15.165C30.5709 15.165 32.6495 12.885 32.6495 9.615C32.6495 6.345 30.5709 4.065 27.6905 4.065C24.8101 4.065 22.7314 6.345 22.7314 9.615ZM30.7491 9.615C30.7491 11.955 29.487 13.47 27.6905 13.47C25.894 13.47 24.6319 11.955 24.6319 9.615C24.6319 7.275 25.894 5.76 27.6905 5.76C29.487 5.76 30.7491 7.275 30.7491 9.615Z" fill="white"/>
<path d="M38.0012 15.165C40.1838 15.165 41.431 13.305 41.431 11.07C41.431 8.83498 40.1838 6.97498 38.0012 6.97498C36.9916 6.97498 36.2492 7.37998 35.7592 7.96498V7.12498H33.9775V17.7H35.7592V14.175C36.2492 14.76 36.9916 15.165 38.0012 15.165ZM35.7147 10.845C35.7147 9.35998 36.5462 8.54998 37.6449 8.54998C38.9366 8.54998 39.6344 9.56998 39.6344 11.07C39.6344 12.57 38.9366 13.59 37.6449 13.59C36.5462 13.59 35.7147 12.765 35.7147 11.31V10.845Z" fill="white"/>
<path d="M46.2529 15.165C47.8119 15.165 49.0442 14.34 49.5936 12.96L48.0643 12.375C47.8267 13.185 47.1289 13.635 46.2529 13.635C45.1096 13.635 44.3079 12.81 44.1743 11.46H49.6381V10.86C49.6381 8.69998 48.4355 6.97498 46.1787 6.97498C43.9218 6.97498 42.4668 8.75998 42.4668 11.07C42.4668 13.5 44.0258 15.165 46.2529 15.165ZM46.1638 8.48998C47.2922 8.48998 47.8267 9.23998 47.8416 10.11H44.2633C44.5306 9.04498 45.2433 8.48998 46.1638 8.48998Z" fill="white"/>
<path d="M50.9751 15H52.7568V10.38C52.7568 9.25498 53.5734 8.65498 54.3752 8.65498C55.3551 8.65498 55.7411 9.35998 55.7411 10.335V15H57.5228V9.80998C57.5228 8.11498 56.5429 6.97498 54.9097 6.97498C53.9 6.97498 53.2022 7.43998 52.7568 7.96498V7.12498H50.9751V15Z" fill="white"/>
<path d="M62.7411 4.22998L58.7026 15H60.5883L61.494 12.54H66.0967L67.0172 15H68.9325L64.894 4.22998H62.7411ZM63.7805 6.35998L65.4731 10.86H62.1176L63.7805 6.35998Z" fill="white"/>
<path d="M71.9913 4.26123H70.0908V15.0312H71.9913V4.26123Z" fill="white"/>
<path d="M18.3775 8.1856C18.8267 6.82372 18.672 5.33185 17.9537 4.0931C16.8736 2.1931 14.7022 1.2156 12.5814 1.6756C11.638 0.601846 10.2826 -0.00877931 8.86154 -2.93058e-05C6.69381 -0.00502931 4.77044 1.40497 4.10354 3.48872C2.71098 3.77685 1.50895 4.65747 0.805552 5.9056C-0.282643 7.8006 -0.0345668 10.1893 1.41925 11.8143C0.970111 13.1762 1.12477 14.6681 1.84302 15.9068C2.92317 17.8068 5.09461 18.7843 7.21532 18.3243C8.15814 19.3981 9.5142 20.0087 10.9352 19.9993C13.1042 20.005 15.0282 18.5937 15.6951 16.5081C17.0876 16.22 18.2897 15.3393 18.9931 14.0912C20.08 12.1962 19.8313 9.80935 18.3781 8.18435L18.3775 8.1856ZM10.9365 18.6925C10.0685 18.6937 9.22777 18.3868 8.56149 17.825C8.59181 17.8087 8.64439 17.7793 8.67842 17.7581L12.6204 15.4581C12.8221 15.3425 12.9458 15.1256 12.9446 14.8912V9.27684L14.6106 10.2487C14.6285 10.2575 14.6403 10.275 14.6428 10.295V14.9443C14.6403 17.0118 12.9829 18.6881 10.9365 18.6925ZM2.96586 15.2531C2.53095 14.4943 2.37443 13.605 2.52353 12.7418C2.5526 12.7593 2.60395 12.7912 2.64045 12.8125L6.58245 15.1125C6.78227 15.2306 7.02973 15.2306 7.23017 15.1125L12.0426 12.305V14.2487C12.0438 14.2687 12.0346 14.2881 12.0191 14.3006L8.03441 16.625C6.25952 17.6575 3.99281 17.0437 2.96648 15.2531H2.96586ZM1.92839 6.55997C2.36144 5.79997 3.04504 5.21872 3.85918 4.91685C3.85918 4.95122 3.85732 5.01185 3.85732 5.05435V9.65497C3.85609 9.88872 3.97981 10.1056 4.18087 10.2212L8.99331 13.0281L7.3273 14C7.31059 14.0112 7.28956 14.0131 7.271 14.005L3.2857 11.6787C1.51452 10.6425 0.907009 8.3531 1.92777 6.5606L1.92839 6.55997ZM15.6165 9.7781L10.8041 6.9706L12.4701 5.99935C12.4868 5.9881 12.5078 5.98622 12.5264 5.99435L16.5117 8.31872C18.286 9.35435 18.8941 11.6475 17.869 13.44C17.4353 14.1987 16.7523 14.78 15.9388 15.0825V10.3443C15.9407 10.1106 15.8176 9.89435 15.6171 9.7781H15.6165ZM17.2745 7.25685C17.2454 7.23872 17.1941 7.20747 17.1576 7.18622L13.2156 4.88622C13.0157 4.7681 12.7683 4.7681 12.5678 4.88622L7.7554 7.69372V5.74997C7.75416 5.72997 7.76344 5.7106 7.77891 5.6981L11.7636 3.3756C13.5385 2.34122 15.8077 2.95685 16.8309 4.7506C17.2633 5.5081 17.4199 6.39497 17.2732 7.25685H17.2745ZM6.8497 10.7212L5.18308 9.74935C5.16514 9.7406 5.15338 9.7231 5.15091 9.7031V5.05372C5.15215 2.98372 6.81444 1.30622 8.86339 1.30747C9.73011 1.30747 10.569 1.61497 11.2353 2.17497C11.205 2.19122 11.153 2.2206 11.1183 2.24185L7.17635 4.54185C6.97467 4.65747 6.85094 4.87372 6.85218 5.1081L6.8497 10.72V10.7212ZM7.75478 8.74997L9.89838 7.49935L12.042 8.74935V11.25L9.89838 12.5L7.75478 11.25V8.74997Z" fill="white"/>
</g>
<defs>
<clipPath id="clip0_565_1352">
<rect width="73" height="20" fill="white"/>
</clipPath>
</defs>
</svg>
