<svg width="119" height="32" viewBox="0 0 119 32" fill="none" xmlns="http://www.w3.org/2000/svg">
<g clip-path="url(#clip0_392_1534)">
<path d="M36.9916 15.3839C36.9916 20.6159 40.3516 24.2639 45.0076 24.2639C49.6636 24.2639 53.0236 20.6159 53.0236 15.3839C53.0236 10.1519 49.6636 6.50391 45.0076 6.50391C40.3516 6.50391 36.9916 10.1519 36.9916 15.3839ZM49.9516 15.3839C49.9516 19.1279 47.9116 21.5519 45.0076 21.5519C42.1036 21.5519 40.0636 19.1279 40.0636 15.3839C40.0636 11.6399 42.1036 9.21591 45.0076 9.21591C47.9116 9.21591 49.9516 11.6399 49.9516 15.3839Z" fill="#262626"/>
<path d="M61.6746 24.2639C65.2026 24.2639 67.2186 21.2879 67.2186 17.7119C67.2186 14.1359 65.2026 11.1599 61.6746 11.1599C60.0426 11.1599 58.8426 11.8079 58.0506 12.7439V11.3999H55.1706V28.3199H58.0506V22.6799C58.8426 23.6159 60.0426 24.2639 61.6746 24.2639ZM57.9786 17.3519C57.9786 14.9759 59.3226 13.6799 61.0986 13.6799C63.1866 13.6799 64.3146 15.3119 64.3146 17.7119C64.3146 20.1119 63.1866 21.7439 61.0986 21.7439C59.3226 21.7439 57.9786 20.4239 57.9786 18.0959V17.3519Z" fill="#262626"/>
<path d="M75.0126 24.2639C77.5326 24.2639 79.5246 22.9439 80.4126 20.7359L77.9406 19.7999C77.5566 21.0959 76.4286 21.8159 75.0126 21.8159C73.1646 21.8159 71.8686 20.4959 71.6526 18.3359H80.4846V17.3759C80.4846 13.9199 78.5406 11.1599 74.8926 11.1599C71.2446 11.1599 68.8926 14.0159 68.8926 17.7119C68.8926 21.5999 71.4126 24.2639 75.0126 24.2639ZM74.8686 13.5839C76.6926 13.5839 77.5566 14.7839 77.5806 16.1759H71.7966C72.2286 14.4719 73.3806 13.5839 74.8686 13.5839Z" fill="#262626"/>
<path d="M82.6456 23.9999H85.5256V16.6079C85.5256 14.8079 86.8456 13.8479 88.1416 13.8479C89.7256 13.8479 90.3496 14.9759 90.3496 16.5359V23.9999H93.2296V15.6959C93.2296 12.9839 91.6456 11.1599 89.0056 11.1599C87.3736 11.1599 86.2456 11.9039 85.5256 12.7439V11.3999H82.6456V23.9999Z" fill="#262626"/>
<path d="M101.665 6.76807L95.1366 24.0001H98.1846L99.6486 20.0641H107.089L108.577 24.0001H111.673L105.145 6.76807H101.665ZM103.345 10.1761L106.081 17.3761H100.657L103.345 10.1761Z" fill="#262626"/>
<path d="M116.617 6.81812H113.545V24.0501H116.617V6.81812Z" fill="#262626"/>
<path d="M29.9536 13.0969C30.6796 10.9179 30.4296 8.5309 29.2686 6.5489C27.5226 3.5089 24.0126 1.9449 20.5846 2.6809C19.0596 0.962904 16.8686 -0.0140957 14.5716 -9.57174e-05C11.0676 -0.00809572 7.95856 2.2479 6.88056 5.5819C4.62956 6.0429 2.68656 7.4519 1.54956 9.4489C-0.209439 12.4809 0.191561 16.3029 2.54156 18.9029C1.81556 21.0819 2.06556 23.4689 3.22656 25.4509C4.97256 28.4909 8.48256 30.0549 11.9106 29.3189C13.4346 31.0369 15.6266 32.0139 17.9236 31.9989C21.4296 32.0079 24.5396 29.7499 25.6176 26.4129C27.8686 25.9519 29.8116 24.5429 30.9486 22.5459C32.7056 19.5139 32.3036 15.6949 29.9546 13.0949L29.9536 13.0969ZM17.9256 29.9079C16.5226 29.9099 15.1636 29.4189 14.0866 28.5199C14.1356 28.4939 14.2206 28.4469 14.2756 28.4129L20.6476 24.7329C20.9736 24.5479 21.1736 24.2009 21.1716 23.8259V14.8429L23.8646 16.3979C23.8936 16.4119 23.9126 16.4399 23.9166 16.4719V23.9109C23.9126 27.2189 21.2336 29.9009 17.9256 29.9079ZM5.04156 24.4049C4.33856 23.1909 4.08556 21.7679 4.32656 20.3869C4.37356 20.4149 4.45656 20.4659 4.51556 20.4999L10.8876 24.1799C11.2106 24.3689 11.6106 24.3689 11.9346 24.1799L19.7136 19.6879V22.7979C19.7156 22.8299 19.7006 22.8609 19.6756 22.8809L13.2346 26.5999C10.3656 28.2519 6.70156 27.2699 5.04256 24.4049H5.04156ZM3.36456 10.4959C4.06456 9.2799 5.16956 8.34991 6.48556 7.8669C6.48556 7.9219 6.48256 8.0189 6.48256 8.08691V15.4479C6.48056 15.8219 6.68056 16.1689 7.00556 16.3539L14.7846 20.8449L12.0916 22.3999C12.0646 22.4179 12.0306 22.4209 12.0006 22.4079L5.55856 18.6859C2.69556 17.0279 1.71356 13.3649 3.36356 10.4969L3.36456 10.4959ZM25.4906 15.6449L17.7116 11.1529L20.4046 9.5989C20.4316 9.5809 20.4656 9.5779 20.4956 9.59091L26.9376 13.3099C29.8056 14.9669 30.7886 18.6359 29.1316 21.5039C28.4306 22.7179 27.3266 23.6479 26.0116 24.1319V16.5509C26.0146 16.1769 25.8156 15.8309 25.4916 15.6449H25.4906ZM28.1706 11.6109C28.1236 11.5819 28.0406 11.5319 27.9816 11.4979L21.6096 7.8179C21.2866 7.6289 20.8866 7.6289 20.5626 7.8179L12.7836 12.3099V9.1999C12.7816 9.1679 12.7966 9.1369 12.8216 9.1169L19.2626 5.4009C22.1316 3.7459 25.7996 4.73091 27.4536 7.6009C28.1526 8.81291 28.4056 10.2319 28.1686 11.6109H28.1706ZM11.3196 17.1539L8.62556 15.5989C8.59656 15.5849 8.57756 15.5569 8.57356 15.5249V8.08591C8.57556 4.7739 11.2626 2.0899 14.5746 2.0919C15.9756 2.0919 17.3316 2.5839 18.4086 3.4799C18.3596 3.5059 18.2756 3.5529 18.2196 3.5869L11.8476 7.2669C11.5216 7.4519 11.3216 7.7979 11.3236 8.1729L11.3196 17.1519V17.1539ZM12.7826 13.9999L16.2476 11.9989L19.7126 13.9989V17.9999L16.2476 19.9999L12.7826 17.9999V13.9999Z" fill="#262626"/>
</g>
<defs>
<clipPath id="clip0_392_1534">
<rect width="118" height="32" fill="white" transform="translate(0.247559)"/>
</clipPath>
</defs>
</svg>
