<svg xmlns="http://www.w3.org/2000/svg" width="100%" height="100%" viewBox="0 0 134 30" fill="none" preserveAspectRatio="xMidYMid meet" aria-hidden="true" role="img">
  <path d="M130.152 9.63429H120.552V20.7771H117.021V9.63429C117.021 7.85144 118.461 6.37716 120.278 6.37716H126.895C128.712 6.37716 130.152 7.85144 130.152 9.63429ZM130.152 20.7771V9.63429H133.684V20.7771C133.684 22.56 132.244 24 130.461 24H123.775C121.992 24 120.552 22.56 120.552 20.7771H130.152Z" fill="#4F4F4F"></path>
  <path d="M104.089 6.37716H109.677C111.46 6.37716 112.9 7.85144 112.9 9.63429V24H109.369V9.63429H100.866C100.866 7.85144 102.306 6.37716 104.089 6.37716ZM100.866 24H97.3V9.63429H100.866V24Z" fill="#4F4F4F"></path>
  <path d="M89.6388 9.63429H80.0389V20.7771H76.5074V9.63429C76.5074 7.85144 77.9474 6.37716 79.7646 6.37716H86.3817C88.1988 6.37716 89.6388 7.85144 89.6388 9.63429ZM89.6388 20.7771V9.63429H93.1703V20.7771C93.1703 22.56 91.7303 24 89.9474 24H83.2617C81.4788 24 80.0389 22.56 80.0389 20.7771H89.6388Z" fill="#4F4F4F"></path>
  <path d="M64.1372 6.37716V9.60001H72.4001V6.37716H64.1372ZM60.503 24V13.1314C60.503 11.1772 62.1144 9.60001 64.0687 9.60001V24H60.503Z" fill="#00CF91"></path>
  <path d="M40.7485 3.63428V0H44.3142V7.16571C42.36 7.16571 40.7485 5.58857 40.7485 3.63428ZM44.3142 7.16571H52.9542C54.8399 7.16571 56.3828 8.70857 56.3828 10.5943V24H52.8171V10.5943H44.3142V7.16571ZM44.3142 24H40.7485V10.5943H44.3142V24Z" fill="#4F4F4F"></path>
  <path d="M29.7245 6.37716H36.5473V9.63429H26.4674C26.4674 7.81715 27.9074 6.37716 29.7245 6.37716ZM26.4674 9.63429L26.5016 20.7086H36.6502V23.9657H26.5016C24.5131 23.9657 22.9359 22.4229 22.9359 20.4686V9.63429H26.4674Z" fill="#4F4F4F"></path>
  <path d="M0 9.41402C0 7.7181 1.37481 6.34329 3.07073 6.34329H17.6567V20.9293C17.6567 22.6252 16.2819 24 14.586 24H3.07073C1.37481 24 0 22.6252 0 20.9293V9.41402Z" fill="#00CF91"></path>
  <path d="M8.41857 14.223V15.4283H6.00782V16.9837H8.70047V18.1988H4.52054V11.6469H8.56438V12.862H6.00782V14.223H8.41857Z" fill="#4F4F4F"></path>
  <path d="M9.71318 18.1988V11.6469H11.2005V16.9545H13.8056V18.1988H9.71318Z" fill="#4F4F4F"></path>
</svg>