<svg xmlns="http://www.w3.org/2000/svg" width="126" height="42" fill="none"><g clip-path="url(#a)"><path fill="#000" d="M74.054 11.049c-.07 6.02-4.998 10.907-11.06 10.836-6.062-.07-10.919-4.993-10.883-11.049C52.181 4.781 57.109-.07 63.171 0 69.27.035 74.125 4.993 74.054 11.05Z"/><path fill="#fff" d="M63.065 13.847v1.629h-5.424V6.764h5.353v1.63h-3.651v1.876h3.332v1.594h-3.332v1.983h3.722ZM69.34 13.847v1.629h-5.07V6.764h1.737v7.083h3.333Z"/><path fill="#000" d="M80.754 20.115a3.213 3.213 0 0 1-3.225 3.222 3.213 3.213 0 0 1-3.226-3.222 3.213 3.213 0 0 1 3.226-3.223 3.236 3.236 0 0 1 3.225 3.223ZM46.653 6.268C43.178 2.478 35.91 0 28.219 0c-1.418 0-2.872.07-4.29.248C14.393 1.416 6.453 5.56 2.2 11.615c-2.234 3.081-2.801 6.587-1.56 9.491 1.028 2.373 3.757 5.347 10.883 6.197.319.036.815 0 1.063-.566l1.17-2.444a.435.435 0 0 0-.035-.46.436.436 0 0 0-.39-.248C7.232 23.054 5.105 21 4.36 19.37c-.744-1.63-.355-3.612 1.063-5.595 3.545-5.03 10.352-8.464 18.647-9.42a29.91 29.91 0 0 1 3.58-.213c6.488 0 12.904 2.09 15.634 5.064.922.992 1.311 1.983 1.24 2.975-.39 4.391-9.677 8.145-17.05 8.145h-.533l3.297-7.189c.107-.212.071-.496-.142-.637l-2.34-1.771c-.106-.106-.283-.142-.46-.106-3.084.673-7.55 1.7-9.607 4.816-.78 1.204-.957 2.62-.496 4.002.567 1.7 2.127 3.116 4.218 3.895l-7.373 16.22c-.107.212-.071.495.142.637l2.197 1.7c.107.07.213.106.32.106.035 0 .106 0 .141-.036a.593.593 0 0 0 .39-.318l7.941-17.424c.815.107 1.666.142 2.552.142 4.502 0 9.572-1.204 13.542-3.223 4.573-2.337 7.232-5.524 7.55-8.994.25-2.09-.53-4.108-2.161-5.88Zm-21.448 8.747-2.091 4.64c-.85-.355-1.666-.992-1.914-1.7-.071-.249-.071-.497.106-.744.496-1.027 2.588-1.877 3.9-2.196Z"/><path fill="#000" d="m124.854 31.943-2.73-1.806a.447.447 0 0 0-.425-.036c-4.006 1.452-8.118 3.896-11.202 5.914 2.198-5.95 3.013-8.216 3.297-8.96a.504.504 0 0 0-.142-.566l-2.163-1.629c-.141-.106-.319-.142-.46-.07-4.29 1.699-7.409 3.86-9.962 6.161l1.17-3.223a.492.492 0 0 0-.142-.53l-2.198-1.665a.443.443 0 0 0-.602.07c-1.49 1.559-3.049 2.48-4.644 2.692a4.256 4.256 0 0 0-1.028-1.594c-.922-.885-2.198-1.558-5.318-1.027a.487.487 0 0 0-.354.284c-.426 1.133-.78 2.09-.957 2.585a.713.713 0 0 0 .07.602c.674.885 2.163 1.806 4.006 2.267-1.347 3.54-5.388 7.365-8.472 6.799-.426-.071-1.17-.602-1.454-1.488-.248-.85-.319-3.222 4.077-7.578a.454.454 0 0 0 .142-.354c0-.142-.071-.248-.177-.354l-2.092-1.594c-.177-.142-.425-.106-.602.036l-8.331 7.543 2.623-7.048c.071-.212 0-.425-.177-.53L74.48 25.25a.544.544 0 0 0-.567 0l-8.827 7.153a24.89 24.89 0 0 0-.922-.956c-.745-.708-1.418-1.381-1.418-1.983 0-.319.177-1.063 1.312-2.267.07-.106.141-.212.106-.354a.372.372 0 0 0-.177-.319l-2.127-1.629a.431.431 0 0 0-.568.036c-3.474 2.975-6.097 5.206-8.047 6.87l-.106-.106c-1.595-1.488-2.304-2.125-.213-4.604a.598.598 0 0 0 .107-.354.372.372 0 0 0-.178-.319l-2.091-1.593c-.177-.142-.425-.107-.603.035L39.243 35.697l1.099-2.834c.106-.212.035-.425-.142-.566l-2.34-1.735a.6.6 0 0 0-.354-.107.685.685 0 0 0-.32.177c-4.501 6.41-7.267 7.791-9.18 7.791-3.44 0-1.135-4.426 1.17-6.516 1.594-1.452 5.884-4.71 11.84-2.125.247.107.496 0 .602-.212l1.099-2.337a.321.321 0 0 0 0-.354.428.428 0 0 0-.248-.248c-5.495-2.408-11.309-1.275-15.704 2.727-3.226 2.974-4.715 6.799-3.723 9.526.674 1.841 2.41 3.045 4.786 3.045 1.666 0 4.219-.46 7.586-3.647l-.212 1.097a.46.46 0 0 0 .177.46c.142.107 1.595 1.205 2.269 1.7.177.142.425.107.602-.035l10.174-10.092c.497 1.133 1.347 1.983 2.056 2.655-.992.85-1.701 1.488-2.233 1.948-1.595 1.381-2.552 2.125-3.935 3.223-.142.106-.248.425 0 .602 0 0 1.879 1.416 2.517 1.877.248.177.355.283.745.248 2.552-.213 5.778-1.7 7.267-4.64.531-1.027.567-1.947.354-2.726 1.17-.992 2.553-2.196 4.254-3.648.461 1.24 1.418 2.196 2.198 2.975.284.248.496.496.638.673 0 0-4.856 4.001-6.274 5.1-.142.105-.249.424 0 .601 0 0 1.063.92 1.701 1.381.248.177.355.284.745.248 2.942-.248 6.806-2.23 7.834-6.126h.035l4.999-4.073-2.8 7.579c-.072.177 0 .425.141.53l2.02 1.524c.178.141.426.106.603-.036l6.169-5.56c0 .638.07 1.417.212 1.877.71 2.337 2.659 3.648 4.148 3.931 4.396.85 10.847-3.4 12.69-9.81.923-.07 1.809-.283 2.695-.601l-2.871 7.861c-.071.177 0 .425.177.532l2.198 1.628c.106.071.248.107.39.071a.45.45 0 0 0 .319-.248c.922-1.7 4.36-7.543 11.734-11.544a644.6 644.6 0 0 0-3.723 10.163c-.07.213 0 .425.178.531l2.304 1.523c.177.107.39.107.532 0 1.914-1.452 9.89-7.189 16.271-8.924a.386.386 0 0 0 .319-.39c.071-.141 0-.318-.177-.424Z"/></g><defs><clipPath id="a"><path fill="#fff" d="M0 0h125.067v42H0z"/></clipPath></defs></svg>