<svg width="464" height="156" fill="none" xmlns="http://www.w3.org/2000/svg"><path d="M274.751 41.042c-.263 22.36-18.544 40.512-41.034 40.25-22.49-.264-40.508-18.547-40.376-41.04.263-22.492 18.544-40.512 41.034-40.25 22.621.132 40.639 18.547 40.376 41.04Z" fill="#00CF91"/><path d="M233.978 51.44v6.05h-20.123V25.133h19.86v6.05h-13.547v6.972h12.363v5.919h-12.363v7.366h13.81ZM257.253 51.44v6.05h-18.808V25.133h6.445V51.44h12.363Z" fill="#fff"/><path d="M299.612 74.714c0 6.708-5.392 11.97-11.968 11.97-6.707 0-11.968-5.394-11.968-11.97 0-6.709 5.392-11.97 11.968-11.97s11.968 5.393 11.968 11.97Z" fill="#000"/><path d="M299.612 74.714c0 6.708-5.392 11.97-11.968 11.97-6.707 0-11.968-5.394-11.968-11.97 0-6.709 5.392-11.97 11.968-11.97s11.968 5.393 11.968 11.97Z" fill="#000" fill-opacity=".2"/><path d="M173.087 23.282C160.199 9.207 133.237 0 104.697 0c-5.26 0-10.653.263-15.913.92-35.38 4.341-64.84 19.73-80.622 42.223C-.124 54.587-2.228 67.61 2.375 78.395c3.814 8.812 13.941 19.861 40.377 23.018 1.183.132 3.025 0 3.945-2.104l4.34-9.076c.264-.526.264-1.184-.131-1.71-.263-.526-.79-.921-1.447-.921C26.838 85.629 18.947 78 16.185 71.949c-2.762-6.05-1.315-13.416 3.946-20.782C33.282 32.489 58.534 19.73 89.31 16.179c4.34-.526 8.811-.79 13.283-.79 24.068 0 47.873 7.761 58 18.81 3.42 3.683 4.866 7.366 4.603 11.049-1.446 16.31-35.905 30.253-63.261 30.253h-1.972l12.231-26.702c.395-.789.263-1.841-.526-2.367l-8.68-6.577c-.395-.395-1.053-.526-1.71-.395-11.442 2.5-28.014 6.314-35.642 17.89-2.893 4.471-3.55 9.733-1.841 14.863 2.104 6.313 7.891 11.575 15.65 14.468L52.09 146.924c-.395.789-.263 1.842.526 2.368l8.154 6.313c.394.263.789.395 1.184.395.131 0 .394 0 .526-.132.657-.131 1.183-.657 1.446-1.183l29.46-64.715c3.026.394 6.182.526 9.47.526 16.703 0 35.51-4.472 50.24-11.97 16.966-8.681 26.83-20.52 28.014-33.41.921-7.76-1.973-15.258-8.023-21.834ZM93.518 55.77 85.758 73c-3.156-1.315-6.18-3.682-7.102-6.313-.263-.92-.263-1.841.395-2.762 1.841-3.815 9.601-6.971 14.467-8.155Z" fill="#000"/><path d="M173.087 23.282C160.199 9.207 133.237 0 104.697 0c-5.26 0-10.653.263-15.913.92-35.38 4.341-64.84 19.73-80.622 42.223C-.124 54.587-2.228 67.61 2.375 78.395c3.814 8.812 13.941 19.861 40.377 23.018 1.183.132 3.025 0 3.945-2.104l4.34-9.076c.264-.526.264-1.184-.131-1.71-.263-.526-.79-.921-1.447-.921C26.838 85.629 18.947 78 16.185 71.949c-2.762-6.05-1.315-13.416 3.946-20.782C33.282 32.489 58.534 19.73 89.31 16.179c4.34-.526 8.811-.79 13.283-.79 24.068 0 47.873 7.761 58 18.81 3.42 3.683 4.866 7.366 4.603 11.049-1.446 16.31-35.905 30.253-63.261 30.253h-1.972l12.231-26.702c.395-.789.263-1.841-.526-2.367l-8.68-6.577c-.395-.395-1.053-.526-1.71-.395-11.442 2.5-28.014 6.314-35.642 17.89-2.893 4.471-3.55 9.733-1.841 14.863 2.104 6.313 7.891 11.575 15.65 14.468L52.09 146.924c-.395.789-.263 1.842.526 2.368l8.154 6.313c.394.263.789.395 1.184.395.131 0 .394 0 .526-.132.657-.131 1.183-.657 1.446-1.183l29.46-64.715c3.026.394 6.182.526 9.47.526 16.703 0 35.51-4.472 50.24-11.97 16.966-8.681 26.83-20.52 28.014-33.41.921-7.76-1.973-15.258-8.023-21.834ZM93.518 55.77 85.758 73c-3.156-1.315-6.18-3.682-7.102-6.313-.263-.92-.263-1.841.395-2.762 1.841-3.815 9.601-6.971 14.467-8.155Z" fill="#000" fill-opacity=".2"/><path d="m463.222 118.648-10.127-6.708c-.394-.263-1.052-.394-1.578-.131-14.861 5.393-30.118 14.468-41.56 21.966 8.154-22.098 11.179-30.516 12.231-33.278.263-.658.132-1.579-.526-2.105l-8.022-6.05c-.526-.395-1.184-.527-1.71-.264-15.914 6.314-27.488 14.338-36.957 22.887l4.34-11.969c.263-.658 0-1.579-.526-1.973l-8.154-6.182c-.658-.526-1.71-.395-2.236.263-5.524 5.787-11.311 9.207-17.229 9.996-.789-2.236-2.104-4.209-3.814-5.919-3.42-3.288-8.154-5.787-19.728-3.814-.658.131-1.052.526-1.315 1.052-1.578 4.209-2.894 7.761-3.551 9.602-.263.789-.132 1.578.263 2.236 2.499 3.289 8.023 6.708 14.862 8.418-4.998 13.154-19.991 27.36-31.434 25.255-1.578-.263-4.34-2.236-5.392-5.524-.92-3.157-1.184-11.97 15.125-28.149.394-.394.526-.789.526-1.315 0-.526-.263-.921-.658-1.316l-7.759-5.919c-.658-.526-1.579-.394-2.236.132l-30.907 28.017 9.732-26.176c.263-.789 0-1.578-.657-1.973l-7.891-5.919a2.02 2.02 0 0 0-2.105 0l-32.748 26.57c-1.184-1.315-2.367-2.499-3.42-3.551-2.762-2.631-5.26-5.13-5.26-7.366 0-1.184.657-3.946 4.866-8.418.263-.395.526-.789.394-1.316 0-.526-.263-.92-.657-1.183l-7.891-6.051c-.658-.526-1.579-.395-2.105.132-12.889 11.048-22.621 19.335-29.855 25.517l-.394-.394c-5.918-5.525-8.549-7.892-.789-17.1a2.22 2.22 0 0 0 .394-1.315c0-.526-.263-.92-.657-1.184l-7.76-5.92c-.657-.525-1.578-.394-2.236.132l-40.508 40.25 4.077-10.523c.395-.789.132-1.578-.526-2.104l-8.68-6.445a2.214 2.214 0 0 0-1.315-.395 2.54 2.54 0 0 0-1.184.658c-16.703 23.807-26.961 28.937-34.063 28.937-12.758 0-4.209-16.442 4.34-24.202 5.918-5.393 21.832-17.494 43.927-7.892.921.394 1.842 0 2.236-.789l4.077-8.682c.263-.394.263-.92 0-1.315-.131-.395-.526-.79-.92-.92-20.386-8.945-41.955-4.736-58.264 10.127-11.968 11.049-17.492 25.255-13.809 35.383 2.499 6.84 8.943 11.312 17.755 11.312 6.182 0 15.651-1.71 28.145-13.548l-.789 4.078a1.715 1.715 0 0 0 .658 1.71c.526.394 5.918 4.472 8.417 6.313.658.526 1.578.395 2.236-.131l37.746-37.488c1.841 4.209 4.998 7.366 7.628 9.865-3.683 3.157-6.313 5.525-8.286 7.235-5.918 5.13-9.469 7.892-14.598 11.97-.526.394-.921 1.578 0 2.236 0 0 6.97 5.261 9.337 6.971.921.658 1.316 1.052 2.762.921 9.47-.79 21.438-6.314 26.962-17.231 1.973-3.815 2.104-7.235 1.315-10.129 4.34-3.682 9.469-8.155 15.782-13.548 1.71 4.604 5.261 8.156 8.155 11.049a19.465 19.465 0 0 1 2.367 2.499s-18.018 14.864-23.279 18.941c-.526.395-.921 1.579 0 2.237 0 0 3.946 3.419 6.313 5.129.921.658 1.315 1.053 2.762.921 10.916-.921 25.252-8.287 29.066-22.755h.131l18.544-15.127-10.39 28.149c-.263.657 0 1.578.526 1.973l7.497 5.656c.658.526 1.578.394 2.236-.132l22.884-20.651c0 2.368.263 5.262.789 6.971 2.631 8.682 9.864 13.549 15.388 14.601 16.308 3.157 40.245-12.628 47.084-36.435 3.419-.263 6.707-1.053 9.995-2.236l-10.653 29.2c-.263.658 0 1.579.658 1.973l8.154 6.051c.395.263.921.395 1.447.263s.92-.395 1.183-.921c3.42-6.313 16.177-28.017 43.533-42.88-4.734 12.627-7.628 20.519-13.809 37.75-.263.79 0 1.579.657 1.973l8.549 5.656c.658.395 1.447.395 1.973 0 7.102-5.393 36.694-26.701 60.367-33.146.658-.132 1.184-.658 1.184-1.447.263-.526 0-1.184-.658-1.579Z" fill="#000"/><path d="m463.222 118.648-10.127-6.708c-.394-.263-1.052-.394-1.578-.131-14.861 5.393-30.118 14.468-41.56 21.966 8.154-22.098 11.179-30.516 12.231-33.278.263-.658.132-1.579-.526-2.105l-8.022-6.05c-.526-.395-1.184-.527-1.71-.264-15.914 6.314-27.488 14.338-36.957 22.887l4.34-11.969c.263-.658 0-1.579-.526-1.973l-8.154-6.182c-.658-.526-1.71-.395-2.236.263-5.524 5.787-11.311 9.207-17.229 9.996-.789-2.236-2.104-4.209-3.814-5.919-3.42-3.288-8.154-5.787-19.728-3.814-.658.131-1.052.526-1.315 1.052-1.578 4.209-2.894 7.761-3.551 9.602-.263.789-.132 1.578.263 2.236 2.499 3.289 8.023 6.708 14.862 8.418-4.998 13.154-19.991 27.36-31.434 25.255-1.578-.263-4.34-2.236-5.392-5.524-.92-3.157-1.184-11.97 15.125-28.149.394-.394.526-.789.526-1.315 0-.526-.263-.921-.658-1.316l-7.759-5.919c-.658-.526-1.579-.394-2.236.132l-30.907 28.017 9.732-26.176c.263-.789 0-1.578-.657-1.973l-7.891-5.919a2.02 2.02 0 0 0-2.105 0l-32.748 26.57c-1.184-1.315-2.367-2.499-3.42-3.551-2.762-2.631-5.26-5.13-5.26-7.366 0-1.184.657-3.946 4.866-8.418.263-.395.526-.789.394-1.316 0-.526-.263-.92-.657-1.183l-7.891-6.051c-.658-.526-1.579-.395-2.105.132-12.889 11.048-22.621 19.335-29.855 25.517l-.394-.394c-5.918-5.525-8.549-7.892-.789-17.1a2.22 2.22 0 0 0 .394-1.315c0-.526-.263-.92-.657-1.184l-7.76-5.92c-.657-.525-1.578-.394-2.236.132l-40.508 40.25 4.077-10.523c.395-.789.132-1.578-.526-2.104l-8.68-6.445a2.214 2.214 0 0 0-1.315-.395 2.54 2.54 0 0 0-1.184.658c-16.703 23.807-26.961 28.937-34.063 28.937-12.758 0-4.209-16.442 4.34-24.202 5.918-5.393 21.832-17.494 43.927-7.892.921.394 1.842 0 2.236-.789l4.077-8.682c.263-.394.263-.92 0-1.315-.131-.395-.526-.79-.92-.92-20.386-8.945-41.955-4.736-58.264 10.127-11.968 11.049-17.492 25.255-13.809 35.383 2.499 6.84 8.943 11.312 17.755 11.312 6.182 0 15.651-1.71 28.145-13.548l-.789 4.078a1.715 1.715 0 0 0 .658 1.71c.526.394 5.918 4.472 8.417 6.313.658.526 1.578.395 2.236-.131l37.746-37.488c1.841 4.209 4.998 7.366 7.628 9.865-3.683 3.157-6.313 5.525-8.286 7.235-5.918 5.13-9.469 7.892-14.598 11.97-.526.394-.921 1.578 0 2.236 0 0 6.97 5.261 9.337 6.971.921.658 1.316 1.052 2.762.921 9.47-.79 21.438-6.314 26.962-17.231 1.973-3.815 2.104-7.235 1.315-10.129 4.34-3.682 9.469-8.155 15.782-13.548 1.71 4.604 5.261 8.156 8.155 11.049a19.465 19.465 0 0 1 2.367 2.499s-18.018 14.864-23.279 18.941c-.526.395-.921 1.579 0 2.237 0 0 3.946 3.419 6.313 5.129.921.658 1.315 1.053 2.762.921 10.916-.921 25.252-8.287 29.066-22.755h.131l18.544-15.127-10.39 28.149c-.263.657 0 1.578.526 1.973l7.497 5.656c.658.526 1.578.394 2.236-.132l22.884-20.651c0 2.368.263 5.262.789 6.971 2.631 8.682 9.864 13.549 15.388 14.601 16.308 3.157 40.245-12.628 47.084-36.435 3.419-.263 6.707-1.053 9.995-2.236l-10.653 29.2c-.263.658 0 1.579.658 1.973l8.154 6.051c.395.263.921.395 1.447.263s.92-.395 1.183-.921c3.42-6.313 16.177-28.017 43.533-42.88-4.734 12.627-7.628 20.519-13.809 37.75-.263.79 0 1.579.657 1.973l8.549 5.656c.658.395 1.447.395 1.973 0 7.102-5.393 36.694-26.701 60.367-33.146.658-.132 1.184-.658 1.184-1.447.263-.526 0-1.184-.658-1.579Z" fill="#000" fill-opacity=".2"/></svg>