<svg width="1462" height="369" viewBox="0 0 1462 369" fill="none" xmlns="http://www.w3.org/2000/svg">
<g clip-path="url(#clip0_507_736)">
<rect width="1462" height="369" fill="white"/>
<g opacity="0.1">
<g clip-path="url(#clip1_507_736)">
<path d="M243.667 0H0V243.667H243.667V0Z" fill="white"/>
<path d="M234.225 69.7496L315.853 79.4658M282.349 268.033L222.65 224.478L158.383 201.025L94.1162 163.866L12.1833 182.445M12.1833 182.445L89.8521 232.702L38.5298 267.881L12.1833 182.445ZM12.1833 182.445L-60.0029 150.16L31.0675 116.351L-9.4421 69.7496L38.5298 24.2144L-21.0163 -19.1887" stroke="black" stroke-width="0.385"/>
<path d="M-9.44214 69.7498L72.1862 79.4964L118.787 116.351L183.664 150.16L93.9639 163.714L30.9152 116.199M112.696 275.648L89.852 232.702" stroke="black" stroke-width="0.385"/>
<path d="M158.383 201.025L176.049 256.459L222.65 224.478L255.85 182.446L183.664 150.16L158.383 201.025ZM158.383 201.025L89.8521 232.702L94.1163 163.866L118.788 116.351L164.17 81.9331L234.225 69.7497L175.897 12.6404L112.696 31.9814L89.8521 -10.9648L38.5298 24.2145L72.1863 79.4964L31.0675 116.351L12.1834 182.446L-21.0162 224.478L38.6821 268.033" stroke="black" stroke-width="0.385"/>
<path d="M158.383 -42.6416L176.201 12.9449L222.65 -19.1887M183.664 150.16L164.17 81.933M164.17 81.933L72.1863 79.4963L112.696 31.9813M164.17 81.933L274.734 116.351M118.788 116.351H31.0675" stroke="black" stroke-width="0.385"/>
<path d="M-67.6175 12.7926L38.5298 24.2144L112.696 31.9813L164.17 81.933L175.897 12.6403M175.897 12.6403L282.349 24.3667L234.225 69.7497L274.734 116.351L183.664 150.16L222.65 224.478M175.897 12.6403L89.8521 -10.9649M176.049 256.459L89.8521 232.702M12.1833 -61.2212L38.6821 24.3667M31.0675 116.351L-79.4963 81.933" stroke="black" stroke-width="0.385"/>
<path d="M234.225 72.4908C235.739 72.4908 236.966 71.2635 236.966 69.7496C236.966 68.2356 235.739 67.0083 234.225 67.0083C232.711 67.0083 231.483 68.2356 231.483 69.7496C231.483 71.2635 232.711 72.4908 234.225 72.4908Z" fill="black"/>
<path d="M164.17 84.6742C165.684 84.6742 166.912 83.4469 166.912 81.9329C166.912 80.4189 165.684 79.1917 164.17 79.1917C162.656 79.1917 161.429 80.4189 161.429 81.9329C161.429 83.4469 162.656 84.6742 164.17 84.6742Z" fill="black"/>
<path d="M183.664 152.901C185.178 152.901 186.405 151.674 186.405 150.16C186.405 148.646 185.178 147.418 183.664 147.418C182.15 147.418 180.923 148.646 180.923 150.16C180.923 151.674 182.15 152.901 183.664 152.901Z" fill="black"/>
<path d="M222.65 227.219C224.164 227.219 225.392 225.992 225.392 224.478C225.392 222.964 224.164 221.737 222.65 221.737C221.136 221.737 219.909 222.964 219.909 224.478C219.909 225.992 221.136 227.219 222.65 227.219Z" fill="black"/>
<path d="M158.383 203.766C159.897 203.766 161.125 202.539 161.125 201.025C161.125 199.511 159.897 198.284 158.383 198.284C156.869 198.284 155.642 199.511 155.642 201.025C155.642 202.539 156.869 203.766 158.383 203.766Z" fill="black"/>
<path d="M94.1163 166.607C95.6302 166.607 96.8575 165.38 96.8575 163.866C96.8575 162.352 95.6302 161.125 94.1163 161.125C92.6023 161.125 91.375 162.352 91.375 163.866C91.375 165.38 92.6023 166.607 94.1163 166.607Z" fill="black"/>
<path d="M89.8521 235.443C91.366 235.443 92.5933 234.216 92.5933 232.702C92.5933 231.188 91.366 229.96 89.8521 229.96C88.3381 229.96 87.1108 231.188 87.1108 232.702C87.1108 234.216 88.3381 235.443 89.8521 235.443Z" fill="black"/>
<path d="M12.1834 185.187C13.6973 185.187 14.9246 183.959 14.9246 182.445C14.9246 180.931 13.6973 179.704 12.1834 179.704C10.6694 179.704 9.44214 180.931 9.44214 182.445C9.44214 183.959 10.6694 185.187 12.1834 185.187Z" fill="black"/>
<path d="M31.0675 119.092C32.5815 119.092 33.8088 117.865 33.8088 116.351C33.8088 114.837 32.5815 113.61 31.0675 113.61C29.5536 113.61 28.3263 114.837 28.3263 116.351C28.3263 117.865 29.5536 119.092 31.0675 119.092Z" fill="black"/>
<path d="M38.6822 27.108C40.1961 27.108 41.4234 25.8807 41.4234 24.3667C41.4234 22.8528 40.1961 21.6255 38.6822 21.6255C37.1682 21.6255 35.9409 22.8528 35.9409 24.3667C35.9409 25.8807 37.1682 27.108 38.6822 27.108Z" fill="black"/>
<path d="M112.696 34.7225C114.21 34.7225 115.437 33.4952 115.437 31.9812C115.437 30.4673 114.21 29.24 112.696 29.24C111.182 29.24 109.955 30.4673 109.955 31.9812C109.955 33.4952 111.182 34.7225 112.696 34.7225Z" fill="black"/>
<path d="M176.049 15.5338C177.563 15.5338 178.79 14.3065 178.79 12.7925C178.79 11.2786 177.563 10.0513 176.049 10.0513C174.535 10.0513 173.308 11.2786 173.308 12.7925C173.308 14.3065 174.535 15.5338 176.049 15.5338Z" fill="black"/>
<path d="M72.1863 82.2376C73.7003 82.2376 74.9276 81.0103 74.9276 79.4964C74.9276 77.9824 73.7003 76.7551 72.1863 76.7551C70.6724 76.7551 69.4451 77.9824 69.4451 79.4964C69.4451 81.0103 70.6724 82.2376 72.1863 82.2376Z" fill="black"/>
<path d="M118.788 119.092C120.301 119.092 121.529 117.865 121.529 116.351C121.529 114.837 120.301 113.61 118.788 113.61C117.274 113.61 116.046 114.837 116.046 116.351C116.046 117.865 117.274 119.092 118.788 119.092Z" fill="black"/>
</g>
<g clip-path="url(#clip2_507_736)">
<path d="M243.667 243.667H0V487.333H243.667V243.667Z" fill="white"/>
<path d="M234.225 313.416L315.853 323.133M282.349 511.7L222.65 468.145L158.383 444.692L94.1162 407.533L12.1833 426.112M12.1833 426.112L89.8521 476.368L38.5298 511.548L12.1833 426.112ZM12.1833 426.112L-60.0029 393.826L31.0675 360.018L-9.4421 313.416L38.5298 267.881L-21.0163 224.478" stroke="black" stroke-width="0.385"/>
<path d="M-9.44214 313.417L72.1862 323.163L118.787 360.018L183.664 393.827L93.9639 407.38L30.9152 359.865M112.696 519.315L89.852 476.369" stroke="black" stroke-width="0.385"/>
<path d="M158.383 444.692L176.049 500.126L222.65 468.145L255.85 426.112L183.664 393.826L158.383 444.692ZM158.383 444.692L89.8521 476.369L94.1163 407.533L118.788 360.018L164.17 325.6L234.225 313.416L175.897 256.307L112.696 275.648L89.8521 232.702L38.5298 267.881L72.1863 323.163L31.0675 360.018L12.1834 426.112L-21.0162 468.145L38.6821 511.7" stroke="black" stroke-width="0.385"/>
<path d="M158.383 201.025L176.201 256.612L222.65 224.478M183.664 393.826L164.17 325.6M164.17 325.6L72.1863 323.163L112.696 275.648M164.17 325.6L274.734 360.018M118.788 360.018H31.0675" stroke="black" stroke-width="0.385"/>
<path d="M-67.6175 256.459L38.5298 267.881L112.696 275.648L164.17 325.6L175.897 256.307M175.897 256.307L282.349 268.033L234.225 313.416L274.734 360.018L183.664 393.826L222.65 468.145M175.897 256.307L89.8521 232.702M176.049 500.126L89.8521 476.369M12.1833 182.446L38.6821 268.033M31.0675 360.018L-79.4963 325.6" stroke="black" stroke-width="0.385"/>
<path d="M234.225 316.158C235.739 316.158 236.966 314.93 236.966 313.416C236.966 311.902 235.739 310.675 234.225 310.675C232.711 310.675 231.483 311.902 231.483 313.416C231.483 314.93 232.711 316.158 234.225 316.158Z" fill="black"/>
<path d="M164.17 328.341C165.684 328.341 166.912 327.114 166.912 325.6C166.912 324.086 165.684 322.858 164.17 322.858C162.656 322.858 161.429 324.086 161.429 325.6C161.429 327.114 162.656 328.341 164.17 328.341Z" fill="black"/>
<path d="M31.0675 362.759C32.5815 362.759 33.8088 361.532 33.8088 360.018C33.8088 358.504 32.5815 357.276 31.0675 357.276C29.5536 357.276 28.3263 358.504 28.3263 360.018C28.3263 361.532 29.5536 362.759 31.0675 362.759Z" fill="black"/>
<path d="M38.6822 270.775C40.1961 270.775 41.4234 269.547 41.4234 268.033C41.4234 266.52 40.1961 265.292 38.6822 265.292C37.1682 265.292 35.9409 266.52 35.9409 268.033C35.9409 269.547 37.1682 270.775 38.6822 270.775Z" fill="black"/>
<path d="M112.696 278.389C114.21 278.389 115.437 277.162 115.437 275.648C115.437 274.134 114.21 272.907 112.696 272.907C111.182 272.907 109.955 274.134 109.955 275.648C109.955 277.162 111.182 278.389 112.696 278.389Z" fill="black"/>
<path d="M176.049 259.201C177.563 259.201 178.79 257.973 178.79 256.459C178.79 254.945 177.563 253.718 176.049 253.718C174.535 253.718 173.308 254.945 173.308 256.459C173.308 257.973 174.535 259.201 176.049 259.201Z" fill="black"/>
<path d="M72.1863 325.904C73.7003 325.904 74.9276 324.677 74.9276 323.163C74.9276 321.649 73.7003 320.422 72.1863 320.422C70.6724 320.422 69.4451 321.649 69.4451 323.163C69.4451 324.677 70.6724 325.904 72.1863 325.904Z" fill="black"/>
<path d="M118.788 362.759C120.301 362.759 121.529 361.532 121.529 360.018C121.529 358.504 120.301 357.276 118.788 357.276C117.274 357.276 116.046 358.504 116.046 360.018C116.046 361.532 117.274 362.759 118.788 362.759Z" fill="black"/>
</g>
<g clip-path="url(#clip3_507_736)">
<path d="M487.333 0H243.667V243.667H487.333V0Z" fill="white"/>
<path d="M477.891 69.7496L559.52 79.4658M526.015 268.033L466.317 224.478L402.05 201.025L337.783 163.866L255.85 182.445M255.85 182.445L333.519 232.702L282.196 267.881L255.85 182.445ZM255.85 182.445L183.664 150.16L274.734 116.351L234.225 69.7496L282.196 24.2144L222.65 -19.1887" stroke="black" stroke-width="0.385"/>
<path d="M234.225 69.7498L315.853 79.4964L362.454 116.351L427.33 150.16L337.631 163.714L274.582 116.199M356.363 275.648L333.519 232.702" stroke="black" stroke-width="0.385"/>
<path d="M402.05 201.025L419.716 256.459L466.317 224.478L499.517 182.446L427.33 150.16L402.05 201.025ZM402.05 201.025L333.519 232.702L337.783 163.866L362.454 116.351L407.837 81.9331L477.891 69.7497L419.564 12.6404L356.362 31.9814L333.519 -10.9648L282.196 24.2145L315.853 79.4964L274.734 116.351L255.85 182.446L222.65 224.478L282.349 268.033" stroke="black" stroke-width="0.385"/>
<path d="M402.05 -42.6416L419.868 12.9449L466.317 -19.1887M427.33 150.16L407.837 81.933M407.837 81.933L315.853 79.4963L356.362 31.9813M407.837 81.933L518.401 116.351M362.454 116.351H274.734" stroke="black" stroke-width="0.385"/>
<path d="M176.049 12.7926L282.196 24.2144L356.363 31.9813L407.837 81.933L419.564 12.6403M419.564 12.6403L526.015 24.3667L477.891 69.7497L518.401 116.351L427.33 150.16L466.317 224.478M419.564 12.6403L333.519 -10.9649M419.716 256.459L333.519 232.702M255.85 -61.2212L282.349 24.3667M274.734 116.351L164.17 81.933" stroke="black" stroke-width="0.385"/>
<path d="M477.891 72.4908C479.405 72.4908 480.633 71.2635 480.633 69.7496C480.633 68.2356 479.405 67.0083 477.891 67.0083C476.377 67.0083 475.15 68.2356 475.15 69.7496C475.15 71.2635 476.377 72.4908 477.891 72.4908Z" fill="black"/>
<path d="M407.837 84.6742C409.351 84.6742 410.578 83.4469 410.578 81.9329C410.578 80.4189 409.351 79.1917 407.837 79.1917C406.323 79.1917 405.096 80.4189 405.096 81.9329C405.096 83.4469 406.323 84.6742 407.837 84.6742Z" fill="black"/>
<path d="M427.33 152.901C428.844 152.901 430.072 151.674 430.072 150.16C430.072 148.646 428.844 147.418 427.33 147.418C425.817 147.418 424.589 148.646 424.589 150.16C424.589 151.674 425.817 152.901 427.33 152.901Z" fill="black"/>
<path d="M466.317 227.219C467.831 227.219 469.058 225.992 469.058 224.478C469.058 222.964 467.831 221.737 466.317 221.737C464.803 221.737 463.576 222.964 463.576 224.478C463.576 225.992 464.803 227.219 466.317 227.219Z" fill="black"/>
<path d="M402.05 203.766C403.564 203.766 404.791 202.539 404.791 201.025C404.791 199.511 403.564 198.284 402.05 198.284C400.536 198.284 399.309 199.511 399.309 201.025C399.309 202.539 400.536 203.766 402.05 203.766Z" fill="black"/>
<path d="M337.783 166.607C339.297 166.607 340.524 165.38 340.524 163.866C340.524 162.352 339.297 161.125 337.783 161.125C336.269 161.125 335.042 162.352 335.042 163.866C335.042 165.38 336.269 166.607 337.783 166.607Z" fill="black"/>
<path d="M333.519 235.443C335.033 235.443 336.26 234.216 336.26 232.702C336.26 231.188 335.033 229.96 333.519 229.96C332.005 229.96 330.777 231.188 330.777 232.702C330.777 234.216 332.005 235.443 333.519 235.443Z" fill="black"/>
<path d="M255.85 185.187C257.364 185.187 258.591 183.959 258.591 182.445C258.591 180.931 257.364 179.704 255.85 179.704C254.336 179.704 253.109 180.931 253.109 182.445C253.109 183.959 254.336 185.187 255.85 185.187Z" fill="black"/>
<path d="M274.734 119.092C276.248 119.092 277.475 117.865 277.475 116.351C277.475 114.837 276.248 113.61 274.734 113.61C273.22 113.61 271.993 114.837 271.993 116.351C271.993 117.865 273.22 119.092 274.734 119.092Z" fill="black"/>
<path d="M282.349 27.108C283.863 27.108 285.09 25.8807 285.09 24.3667C285.09 22.8528 283.863 21.6255 282.349 21.6255C280.835 21.6255 279.608 22.8528 279.608 24.3667C279.608 25.8807 280.835 27.108 282.349 27.108Z" fill="black"/>
<path d="M356.362 34.7225C357.876 34.7225 359.104 33.4952 359.104 31.9812C359.104 30.4673 357.876 29.24 356.362 29.24C354.849 29.24 353.621 30.4673 353.621 31.9812C353.621 33.4952 354.849 34.7225 356.362 34.7225Z" fill="black"/>
<path d="M419.716 15.5338C421.23 15.5338 422.457 14.3065 422.457 12.7925C422.457 11.2786 421.23 10.0513 419.716 10.0513C418.202 10.0513 416.975 11.2786 416.975 12.7925C416.975 14.3065 418.202 15.5338 419.716 15.5338Z" fill="black"/>
<path d="M315.853 82.2376C317.367 82.2376 318.594 81.0103 318.594 79.4964C318.594 77.9824 317.367 76.7551 315.853 76.7551C314.339 76.7551 313.112 77.9824 313.112 79.4964C313.112 81.0103 314.339 82.2376 315.853 82.2376Z" fill="black"/>
<path d="M362.454 119.092C363.968 119.092 365.195 117.865 365.195 116.351C365.195 114.837 363.968 113.61 362.454 113.61C360.94 113.61 359.713 114.837 359.713 116.351C359.713 117.865 360.94 119.092 362.454 119.092Z" fill="black"/>
</g>
<g clip-path="url(#clip4_507_736)">
<path d="M487.333 243.667H243.667V487.333H487.333V243.667Z" fill="white"/>
<path d="M477.891 313.416L559.52 323.133M526.015 511.7L466.317 468.145L402.05 444.692L337.783 407.533L255.85 426.112M255.85 426.112L333.519 476.368L282.196 511.548L255.85 426.112ZM255.85 426.112L183.664 393.826L274.734 360.018L234.225 313.416L282.196 267.881L222.65 224.478" stroke="black" stroke-width="0.385"/>
<path d="M234.225 313.417L315.853 323.163L362.454 360.018L427.33 393.827L337.631 407.38L274.582 359.865M356.363 519.315L333.519 476.369" stroke="black" stroke-width="0.385"/>
<path d="M402.05 444.692L419.716 500.126L466.317 468.145L499.517 426.112L427.33 393.826L402.05 444.692ZM402.05 444.692L333.519 476.369L337.783 407.533L362.454 360.018L407.837 325.6L477.891 313.416L419.564 256.307L356.362 275.648L333.519 232.702L282.196 267.881L315.853 323.163L274.734 360.018L255.85 426.112L222.65 468.145L282.349 511.7" stroke="black" stroke-width="0.385"/>
<path d="M402.05 201.025L419.868 256.612L466.317 224.478M427.33 393.826L407.837 325.6M407.837 325.6L315.853 323.163L356.362 275.648M407.837 325.6L518.401 360.018M362.454 360.018H274.734" stroke="black" stroke-width="0.385"/>
<path d="M176.049 256.459L282.196 267.881L356.363 275.648L407.837 325.6L419.564 256.307M419.564 256.307L526.015 268.033L477.891 313.416L518.401 360.018L427.33 393.826L466.317 468.145M419.564 256.307L333.519 232.702M419.716 500.126L333.519 476.369M255.85 182.446L282.349 268.033M274.734 360.018L164.17 325.6" stroke="black" stroke-width="0.385"/>
<path d="M477.891 316.158C479.405 316.158 480.633 314.93 480.633 313.416C480.633 311.902 479.405 310.675 477.891 310.675C476.377 310.675 475.15 311.902 475.15 313.416C475.15 314.93 476.377 316.158 477.891 316.158Z" fill="black"/>
<path d="M407.837 328.341C409.351 328.341 410.578 327.114 410.578 325.6C410.578 324.086 409.351 322.858 407.837 322.858C406.323 322.858 405.096 324.086 405.096 325.6C405.096 327.114 406.323 328.341 407.837 328.341Z" fill="black"/>
<path d="M274.734 362.759C276.248 362.759 277.475 361.532 277.475 360.018C277.475 358.504 276.248 357.276 274.734 357.276C273.22 357.276 271.993 358.504 271.993 360.018C271.993 361.532 273.22 362.759 274.734 362.759Z" fill="black"/>
<path d="M282.349 270.775C283.863 270.775 285.09 269.547 285.09 268.033C285.09 266.52 283.863 265.292 282.349 265.292C280.835 265.292 279.608 266.52 279.608 268.033C279.608 269.547 280.835 270.775 282.349 270.775Z" fill="black"/>
<path d="M356.362 278.389C357.876 278.389 359.104 277.162 359.104 275.648C359.104 274.134 357.876 272.907 356.362 272.907C354.849 272.907 353.621 274.134 353.621 275.648C353.621 277.162 354.849 278.389 356.362 278.389Z" fill="black"/>
<path d="M419.716 259.201C421.23 259.201 422.457 257.973 422.457 256.459C422.457 254.945 421.23 253.718 419.716 253.718C418.202 253.718 416.975 254.945 416.975 256.459C416.975 257.973 418.202 259.201 419.716 259.201Z" fill="black"/>
<path d="M315.853 325.904C317.367 325.904 318.594 324.677 318.594 323.163C318.594 321.649 317.367 320.422 315.853 320.422C314.339 320.422 313.112 321.649 313.112 323.163C313.112 324.677 314.339 325.904 315.853 325.904Z" fill="black"/>
<path d="M362.454 362.759C363.968 362.759 365.195 361.532 365.195 360.018C365.195 358.504 363.968 357.276 362.454 357.276C360.94 357.276 359.713 358.504 359.713 360.018C359.713 361.532 360.94 362.759 362.454 362.759Z" fill="black"/>
</g>
<g clip-path="url(#clip5_507_736)">
<path d="M731 0H487.333V243.667H731V0Z" fill="white"/>
<path d="M721.558 69.7496L803.186 79.4658M769.682 268.033L709.984 224.478L645.717 201.025L581.45 163.866L499.517 182.445M499.517 182.445L577.185 232.702L525.863 267.881L499.517 182.445ZM499.517 182.445L427.33 150.16L518.401 116.351L477.891 69.7496L525.863 24.2144L466.317 -19.1887" stroke="black" stroke-width="0.385"/>
<path d="M477.891 69.7498L559.52 79.4964L606.121 116.351L670.997 150.16L581.297 163.714L518.249 116.199M600.029 275.648L577.186 232.702" stroke="black" stroke-width="0.385"/>
<path d="M645.717 201.025L663.383 256.459L709.984 224.478L743.183 182.446L670.997 150.16L645.717 201.025ZM645.717 201.025L577.185 232.702L581.45 163.866L606.121 116.351L651.504 81.9331L721.558 69.7497L663.23 12.6404L600.029 31.9814L577.185 -10.9648L525.863 24.2145L559.52 79.4964L518.401 116.351L499.517 182.446L466.317 224.478L526.015 268.033" stroke="black" stroke-width="0.385"/>
<path d="M645.717 -42.6416L663.535 12.9449L709.984 -19.1887M670.997 150.16L651.504 81.933M651.504 81.933L559.52 79.4963L600.029 31.9813M651.504 81.933L762.068 116.351M606.121 116.351H518.401" stroke="black" stroke-width="0.385"/>
<path d="M419.716 12.7926L525.863 24.2144L600.029 31.9813L651.504 81.933L663.23 12.6403M663.23 12.6403L769.682 24.3667L721.558 69.7497L762.068 116.351L670.997 150.16L709.984 224.478M663.23 12.6403L577.186 -10.9649M663.383 256.459L577.186 232.702M499.517 -61.2212L526.016 24.3667M518.401 116.351L407.837 81.933" stroke="black" stroke-width="0.385"/>
<path d="M721.558 72.4908C723.072 72.4908 724.299 71.2635 724.299 69.7496C724.299 68.2356 723.072 67.0083 721.558 67.0083C720.044 67.0083 718.817 68.2356 718.817 69.7496C718.817 71.2635 720.044 72.4908 721.558 72.4908Z" fill="black"/>
<path d="M651.504 84.6742C653.018 84.6742 654.245 83.4469 654.245 81.9329C654.245 80.4189 653.018 79.1917 651.504 79.1917C649.99 79.1917 648.763 80.4189 648.763 81.9329C648.763 83.4469 649.99 84.6742 651.504 84.6742Z" fill="black"/>
<path d="M670.997 152.901C672.511 152.901 673.738 151.674 673.738 150.16C673.738 148.646 672.511 147.418 670.997 147.418C669.483 147.418 668.256 148.646 668.256 150.16C668.256 151.674 669.483 152.901 670.997 152.901Z" fill="black"/>
<path d="M709.984 227.219C711.498 227.219 712.725 225.992 712.725 224.478C712.725 222.964 711.498 221.737 709.984 221.737C708.47 221.737 707.243 222.964 707.243 224.478C707.243 225.992 708.47 227.219 709.984 227.219Z" fill="black"/>
<path d="M645.717 203.766C647.231 203.766 648.458 202.539 648.458 201.025C648.458 199.511 647.231 198.284 645.717 198.284C644.203 198.284 642.975 199.511 642.975 201.025C642.975 202.539 644.203 203.766 645.717 203.766Z" fill="black"/>
<path d="M581.45 166.607C582.964 166.607 584.191 165.38 584.191 163.866C584.191 162.352 582.964 161.125 581.45 161.125C579.936 161.125 578.708 162.352 578.708 163.866C578.708 165.38 579.936 166.607 581.45 166.607Z" fill="black"/>
<path d="M577.185 235.443C578.699 235.443 579.927 234.216 579.927 232.702C579.927 231.188 578.699 229.96 577.185 229.96C575.672 229.96 574.444 231.188 574.444 232.702C574.444 234.216 575.672 235.443 577.185 235.443Z" fill="black"/>
<path d="M499.517 185.187C501.031 185.187 502.258 183.959 502.258 182.445C502.258 180.931 501.031 179.704 499.517 179.704C498.003 179.704 496.776 180.931 496.776 182.445C496.776 183.959 498.003 185.187 499.517 185.187Z" fill="black"/>
<path d="M518.401 119.092C519.915 119.092 521.142 117.865 521.142 116.351C521.142 114.837 519.915 113.61 518.401 113.61C516.887 113.61 515.66 114.837 515.66 116.351C515.66 117.865 516.887 119.092 518.401 119.092Z" fill="black"/>
<path d="M526.016 27.108C527.529 27.108 528.757 25.8807 528.757 24.3667C528.757 22.8528 527.529 21.6255 526.016 21.6255C524.502 21.6255 523.274 22.8528 523.274 24.3667C523.274 25.8807 524.502 27.108 526.016 27.108Z" fill="black"/>
<path d="M600.029 34.7225C601.543 34.7225 602.77 33.4952 602.77 31.9812C602.77 30.4673 601.543 29.24 600.029 29.24C598.515 29.24 597.288 30.4673 597.288 31.9812C597.288 33.4952 598.515 34.7225 600.029 34.7225Z" fill="black"/>
<path d="M663.383 15.5338C664.897 15.5338 666.124 14.3065 666.124 12.7925C666.124 11.2786 664.897 10.0513 663.383 10.0513C661.869 10.0513 660.641 11.2786 660.641 12.7925C660.641 14.3065 661.869 15.5338 663.383 15.5338Z" fill="black"/>
<path d="M559.52 82.2376C561.034 82.2376 562.261 81.0103 562.261 79.4964C562.261 77.9824 561.034 76.7551 559.52 76.7551C558.006 76.7551 556.778 77.9824 556.778 79.4964C556.778 81.0103 558.006 82.2376 559.52 82.2376Z" fill="black"/>
<path d="M606.121 119.092C607.635 119.092 608.862 117.865 608.862 116.351C608.862 114.837 607.635 113.61 606.121 113.61C604.607 113.61 603.38 114.837 603.38 116.351C603.38 117.865 604.607 119.092 606.121 119.092Z" fill="black"/>
</g>
<g clip-path="url(#clip6_507_736)">
<path d="M731 243.667H487.333V487.333H731V243.667Z" fill="white"/>
<path d="M721.558 313.416L803.186 323.133M769.682 511.7L709.984 468.145L645.717 444.692L581.45 407.533L499.517 426.112M499.517 426.112L577.185 476.368L525.863 511.548L499.517 426.112ZM499.517 426.112L427.33 393.826L518.401 360.018L477.891 313.416L525.863 267.881L466.317 224.478" stroke="black" stroke-width="0.385"/>
<path d="M477.891 313.417L559.52 323.163L606.121 360.018L670.997 393.827L581.297 407.38L518.249 359.865M600.029 519.315L577.186 476.369" stroke="black" stroke-width="0.385"/>
<path d="M645.717 444.692L663.383 500.126L709.984 468.145L743.183 426.112L670.997 393.826L645.717 444.692ZM645.717 444.692L577.185 476.369L581.45 407.533L606.121 360.018L651.504 325.6L721.558 313.416L663.23 256.307L600.029 275.648L577.185 232.702L525.863 267.881L559.52 323.163L518.401 360.018L499.517 426.112L466.317 468.145L526.015 511.7" stroke="black" stroke-width="0.385"/>
<path d="M645.717 201.025L663.535 256.612L709.984 224.478M670.997 393.826L651.504 325.6M651.504 325.6L559.52 323.163L600.029 275.648M651.504 325.6L762.068 360.018M606.121 360.018H518.401" stroke="black" stroke-width="0.385"/>
<path d="M419.716 256.459L525.863 267.881L600.029 275.648L651.504 325.6L663.23 256.307M663.23 256.307L769.682 268.033L721.558 313.416L762.068 360.018L670.997 393.826L709.984 468.145M663.23 256.307L577.186 232.702M663.383 500.126L577.186 476.369M499.517 182.446L526.016 268.033M518.401 360.018L407.837 325.6" stroke="black" stroke-width="0.385"/>
<path d="M721.558 316.158C723.072 316.158 724.299 314.93 724.299 313.416C724.299 311.902 723.072 310.675 721.558 310.675C720.044 310.675 718.817 311.902 718.817 313.416C718.817 314.93 720.044 316.158 721.558 316.158Z" fill="black"/>
<path d="M651.504 328.341C653.018 328.341 654.245 327.114 654.245 325.6C654.245 324.086 653.018 322.858 651.504 322.858C649.99 322.858 648.763 324.086 648.763 325.6C648.763 327.114 649.99 328.341 651.504 328.341Z" fill="black"/>
<path d="M518.401 362.759C519.915 362.759 521.142 361.532 521.142 360.018C521.142 358.504 519.915 357.276 518.401 357.276C516.887 357.276 515.66 358.504 515.66 360.018C515.66 361.532 516.887 362.759 518.401 362.759Z" fill="black"/>
<path d="M526.016 270.775C527.529 270.775 528.757 269.547 528.757 268.033C528.757 266.52 527.529 265.292 526.016 265.292C524.502 265.292 523.274 266.52 523.274 268.033C523.274 269.547 524.502 270.775 526.016 270.775Z" fill="black"/>
<path d="M600.029 278.389C601.543 278.389 602.77 277.162 602.77 275.648C602.77 274.134 601.543 272.907 600.029 272.907C598.515 272.907 597.288 274.134 597.288 275.648C597.288 277.162 598.515 278.389 600.029 278.389Z" fill="black"/>
<path d="M663.383 259.201C664.897 259.201 666.124 257.973 666.124 256.459C666.124 254.945 664.897 253.718 663.383 253.718C661.869 253.718 660.641 254.945 660.641 256.459C660.641 257.973 661.869 259.201 663.383 259.201Z" fill="black"/>
<path d="M559.52 325.904C561.034 325.904 562.261 324.677 562.261 323.163C562.261 321.649 561.034 320.422 559.52 320.422C558.006 320.422 556.778 321.649 556.778 323.163C556.778 324.677 558.006 325.904 559.52 325.904Z" fill="black"/>
<path d="M606.121 362.759C607.635 362.759 608.862 361.532 608.862 360.018C608.862 358.504 607.635 357.276 606.121 357.276C604.607 357.276 603.38 358.504 603.38 360.018C603.38 361.532 604.607 362.759 606.121 362.759Z" fill="black"/>
</g>
<g clip-path="url(#clip7_507_736)">
<path d="M974.667 0H731V243.667H974.667V0Z" fill="white"/>
<path d="M965.225 69.7496L1046.85 79.4658M1013.35 268.033L953.65 224.478L889.383 201.025L825.116 163.866L743.183 182.445M743.183 182.445L820.852 232.702L769.53 267.881L743.183 182.445ZM743.183 182.445L670.997 150.16L762.067 116.351L721.558 69.7496L769.53 24.2144L709.984 -19.1887" stroke="black" stroke-width="0.385"/>
<path d="M721.558 69.7498L803.186 79.4964L849.788 116.351L914.664 150.16L824.964 163.714L761.915 116.199M843.696 275.648L820.852 232.702" stroke="black" stroke-width="0.385"/>
<path d="M889.383 201.025L907.049 256.459L953.65 224.478L986.85 182.446L914.664 150.16L889.383 201.025ZM889.383 201.025L820.852 232.702L825.116 163.866L849.788 116.351L895.17 81.9331L965.225 69.7497L906.897 12.6404L843.696 31.9814L820.852 -10.9648L769.53 24.2145L803.186 79.4964L762.068 116.351L743.183 182.446L709.984 224.478L769.682 268.033" stroke="black" stroke-width="0.385"/>
<path d="M889.383 -42.6416L907.201 12.9449L953.65 -19.1887M914.664 150.16L895.17 81.933M895.17 81.933L803.186 79.4963L843.696 31.9813M895.17 81.933L1005.73 116.351M849.788 116.351H762.068" stroke="black" stroke-width="0.385"/>
<path d="M663.383 12.7926L769.53 24.2144L843.696 31.9813L895.17 81.933L906.897 12.6403M906.897 12.6403L1013.35 24.3667L965.225 69.7497L1005.73 116.351L914.664 150.16L953.65 224.478M906.897 12.6403L820.852 -10.9649M907.049 256.459L820.852 232.702M743.183 -61.2212L769.682 24.3667M762.068 116.351L651.504 81.933" stroke="black" stroke-width="0.385"/>
<path d="M965.225 72.4908C966.739 72.4908 967.966 71.2635 967.966 69.7496C967.966 68.2356 966.739 67.0083 965.225 67.0083C963.711 67.0083 962.483 68.2356 962.483 69.7496C962.483 71.2635 963.711 72.4908 965.225 72.4908Z" fill="black"/>
<path d="M895.17 84.6742C896.684 84.6742 897.912 83.4469 897.912 81.9329C897.912 80.4189 896.684 79.1917 895.17 79.1917C893.656 79.1917 892.429 80.4189 892.429 81.9329C892.429 83.4469 893.656 84.6742 895.17 84.6742Z" fill="black"/>
<path d="M914.664 152.901C916.178 152.901 917.405 151.674 917.405 150.16C917.405 148.646 916.178 147.418 914.664 147.418C913.15 147.418 911.923 148.646 911.923 150.16C911.923 151.674 913.15 152.901 914.664 152.901Z" fill="black"/>
<path d="M953.65 227.219C955.164 227.219 956.392 225.992 956.392 224.478C956.392 222.964 955.164 221.737 953.65 221.737C952.136 221.737 950.909 222.964 950.909 224.478C950.909 225.992 952.136 227.219 953.65 227.219Z" fill="black"/>
<path d="M889.383 203.766C890.897 203.766 892.125 202.539 892.125 201.025C892.125 199.511 890.897 198.284 889.383 198.284C887.869 198.284 886.642 199.511 886.642 201.025C886.642 202.539 887.869 203.766 889.383 203.766Z" fill="black"/>
<path d="M825.116 166.607C826.63 166.607 827.858 165.38 827.858 163.866C827.858 162.352 826.63 161.125 825.116 161.125C823.602 161.125 822.375 162.352 822.375 163.866C822.375 165.38 823.602 166.607 825.116 166.607Z" fill="black"/>
<path d="M820.852 235.443C822.366 235.443 823.593 234.216 823.593 232.702C823.593 231.188 822.366 229.96 820.852 229.96C819.338 229.96 818.111 231.188 818.111 232.702C818.111 234.216 819.338 235.443 820.852 235.443Z" fill="black"/>
<path d="M743.183 185.187C744.697 185.187 745.925 183.959 745.925 182.445C745.925 180.931 744.697 179.704 743.183 179.704C741.669 179.704 740.442 180.931 740.442 182.445C740.442 183.959 741.669 185.187 743.183 185.187Z" fill="black"/>
<path d="M762.068 119.092C763.581 119.092 764.809 117.865 764.809 116.351C764.809 114.837 763.581 113.61 762.068 113.61C760.554 113.61 759.326 114.837 759.326 116.351C759.326 117.865 760.554 119.092 762.068 119.092Z" fill="black"/>
<path d="M769.682 27.108C771.196 27.108 772.423 25.8807 772.423 24.3667C772.423 22.8528 771.196 21.6255 769.682 21.6255C768.168 21.6255 766.941 22.8528 766.941 24.3667C766.941 25.8807 768.168 27.108 769.682 27.108Z" fill="black"/>
<path d="M843.696 34.7225C845.21 34.7225 846.437 33.4952 846.437 31.9812C846.437 30.4673 845.21 29.24 843.696 29.24C842.182 29.24 840.955 30.4673 840.955 31.9812C840.955 33.4952 842.182 34.7225 843.696 34.7225Z" fill="black"/>
<path d="M907.049 15.5338C908.563 15.5338 909.79 14.3065 909.79 12.7925C909.79 11.2786 908.563 10.0513 907.049 10.0513C905.535 10.0513 904.308 11.2786 904.308 12.7925C904.308 14.3065 905.535 15.5338 907.049 15.5338Z" fill="black"/>
<path d="M803.186 82.2376C804.7 82.2376 805.928 81.0103 805.928 79.4964C805.928 77.9824 804.7 76.7551 803.186 76.7551C801.672 76.7551 800.445 77.9824 800.445 79.4964C800.445 81.0103 801.672 82.2376 803.186 82.2376Z" fill="black"/>
<path d="M849.788 119.092C851.301 119.092 852.529 117.865 852.529 116.351C852.529 114.837 851.301 113.61 849.788 113.61C848.274 113.61 847.046 114.837 847.046 116.351C847.046 117.865 848.274 119.092 849.788 119.092Z" fill="black"/>
</g>
<g clip-path="url(#clip8_507_736)">
<path d="M974.667 243.667H731V487.333H974.667V243.667Z" fill="white"/>
<path d="M965.225 313.416L1046.85 323.133M1013.35 511.7L953.65 468.145L889.383 444.692L825.116 407.533L743.183 426.112M743.183 426.112L820.852 476.368L769.53 511.548L743.183 426.112ZM743.183 426.112L670.997 393.826L762.067 360.018L721.558 313.416L769.53 267.881L709.984 224.478" stroke="black" stroke-width="0.385"/>
<path d="M721.558 313.417L803.186 323.163L849.788 360.018L914.664 393.827L824.964 407.38L761.915 359.865M843.696 519.315L820.852 476.369" stroke="black" stroke-width="0.385"/>
<path d="M889.383 444.692L907.049 500.126L953.65 468.145L986.85 426.112L914.664 393.826L889.383 444.692ZM889.383 444.692L820.852 476.369L825.116 407.533L849.788 360.018L895.17 325.6L965.225 313.416L906.897 256.307L843.696 275.648L820.852 232.702L769.53 267.881L803.186 323.163L762.068 360.018L743.183 426.112L709.984 468.145L769.682 511.7" stroke="black" stroke-width="0.385"/>
<path d="M889.383 201.025L907.201 256.612L953.65 224.478M914.664 393.826L895.17 325.6M895.17 325.6L803.186 323.163L843.696 275.648M895.17 325.6L1005.73 360.018M849.788 360.018H762.068" stroke="black" stroke-width="0.385"/>
<path d="M663.383 256.459L769.53 267.881L843.696 275.648L895.17 325.6L906.897 256.307M906.897 256.307L1013.35 268.033L965.225 313.416L1005.73 360.018L914.664 393.826L953.65 468.145M906.897 256.307L820.852 232.702M907.049 500.126L820.852 476.369M743.183 182.446L769.682 268.033M762.068 360.018L651.504 325.6" stroke="black" stroke-width="0.385"/>
<path d="M965.225 316.158C966.739 316.158 967.966 314.93 967.966 313.416C967.966 311.902 966.739 310.675 965.225 310.675C963.711 310.675 962.483 311.902 962.483 313.416C962.483 314.93 963.711 316.158 965.225 316.158Z" fill="black"/>
<path d="M895.17 328.341C896.684 328.341 897.912 327.114 897.912 325.6C897.912 324.086 896.684 322.858 895.17 322.858C893.656 322.858 892.429 324.086 892.429 325.6C892.429 327.114 893.656 328.341 895.17 328.341Z" fill="black"/>
<path d="M762.068 362.759C763.581 362.759 764.809 361.532 764.809 360.018C764.809 358.504 763.581 357.276 762.068 357.276C760.554 357.276 759.326 358.504 759.326 360.018C759.326 361.532 760.554 362.759 762.068 362.759Z" fill="black"/>
<path d="M769.682 270.775C771.196 270.775 772.423 269.547 772.423 268.033C772.423 266.52 771.196 265.292 769.682 265.292C768.168 265.292 766.941 266.52 766.941 268.033C766.941 269.547 768.168 270.775 769.682 270.775Z" fill="black"/>
<path d="M843.696 278.389C845.21 278.389 846.437 277.162 846.437 275.648C846.437 274.134 845.21 272.907 843.696 272.907C842.182 272.907 840.955 274.134 840.955 275.648C840.955 277.162 842.182 278.389 843.696 278.389Z" fill="black"/>
<path d="M907.049 259.201C908.563 259.201 909.79 257.973 909.79 256.459C909.79 254.945 908.563 253.718 907.049 253.718C905.535 253.718 904.308 254.945 904.308 256.459C904.308 257.973 905.535 259.201 907.049 259.201Z" fill="black"/>
<path d="M803.186 325.904C804.7 325.904 805.928 324.677 805.928 323.163C805.928 321.649 804.7 320.422 803.186 320.422C801.672 320.422 800.445 321.649 800.445 323.163C800.445 324.677 801.672 325.904 803.186 325.904Z" fill="black"/>
<path d="M849.788 362.759C851.301 362.759 852.529 361.532 852.529 360.018C852.529 358.504 851.301 357.276 849.788 357.276C848.274 357.276 847.046 358.504 847.046 360.018C847.046 361.532 848.274 362.759 849.788 362.759Z" fill="black"/>
</g>
<g clip-path="url(#clip9_507_736)">
<path d="M1218.33 0H974.667V243.667H1218.33V0Z" fill="white"/>
<path d="M1208.89 69.7496L1290.52 79.4658M1257.02 268.033L1197.32 224.478L1133.05 201.025L1068.78 163.866L986.85 182.445M986.85 182.445L1064.52 232.702L1013.2 267.881L986.85 182.445ZM986.85 182.445L914.664 150.16L1005.73 116.351L965.225 69.7496L1013.2 24.2144L953.65 -19.1887" stroke="black" stroke-width="0.385"/>
<path d="M965.225 69.7498L1046.85 79.4964L1093.45 116.351L1158.33 150.16L1068.63 163.714L1005.58 116.199M1087.36 275.648L1064.52 232.702" stroke="black" stroke-width="0.385"/>
<path d="M1133.05 201.025L1150.72 256.459L1197.32 224.478L1230.52 182.446L1158.33 150.16L1133.05 201.025ZM1133.05 201.025L1064.52 232.702L1068.78 163.866L1093.45 116.351L1138.84 81.9331L1208.89 69.7497L1150.56 12.6404L1087.36 31.9814L1064.52 -10.9648L1013.2 24.2145L1046.85 79.4964L1005.73 116.351L986.85 182.446L953.65 224.478L1013.35 268.033" stroke="black" stroke-width="0.385"/>
<path d="M1133.05 -42.6416L1150.87 12.9449L1197.32 -19.1887M1158.33 150.16L1138.84 81.933M1138.84 81.933L1046.85 79.4963L1087.36 31.9813M1138.84 81.933L1249.4 116.351M1093.45 116.351H1005.73" stroke="black" stroke-width="0.385"/>
<path d="M907.049 12.7926L1013.2 24.2144L1087.36 31.9813L1138.84 81.933L1150.56 12.6403M1150.56 12.6403L1257.02 24.3667L1208.89 69.7497L1249.4 116.351L1158.33 150.16L1197.32 224.478M1150.56 12.6403L1064.52 -10.9649M1150.72 256.459L1064.52 232.702M986.85 -61.2212L1013.35 24.3667M1005.73 116.351L895.17 81.933" stroke="black" stroke-width="0.385"/>
<path d="M1208.89 72.4908C1210.41 72.4908 1211.63 71.2635 1211.63 69.7496C1211.63 68.2356 1210.41 67.0083 1208.89 67.0083C1207.38 67.0083 1206.15 68.2356 1206.15 69.7496C1206.15 71.2635 1207.38 72.4908 1208.89 72.4908Z" fill="black"/>
<path d="M1138.84 84.6742C1140.35 84.6742 1141.58 83.4469 1141.58 81.9329C1141.58 80.4189 1140.35 79.1917 1138.84 79.1917C1137.32 79.1917 1136.1 80.4189 1136.1 81.9329C1136.1 83.4469 1137.32 84.6742 1138.84 84.6742Z" fill="black"/>
<path d="M1158.33 152.901C1159.84 152.901 1161.07 151.674 1161.07 150.16C1161.07 148.646 1159.84 147.418 1158.33 147.418C1156.82 147.418 1155.59 148.646 1155.59 150.16C1155.59 151.674 1156.82 152.901 1158.33 152.901Z" fill="black"/>
<path d="M1197.32 227.219C1198.83 227.219 1200.06 225.992 1200.06 224.478C1200.06 222.964 1198.83 221.737 1197.32 221.737C1195.8 221.737 1194.58 222.964 1194.58 224.478C1194.58 225.992 1195.8 227.219 1197.32 227.219Z" fill="black"/>
<path d="M1133.05 203.766C1134.56 203.766 1135.79 202.539 1135.79 201.025C1135.79 199.511 1134.56 198.284 1133.05 198.284C1131.54 198.284 1130.31 199.511 1130.31 201.025C1130.31 202.539 1131.54 203.766 1133.05 203.766Z" fill="black"/>
<path d="M1068.78 166.607C1070.3 166.607 1071.52 165.38 1071.52 163.866C1071.52 162.352 1070.3 161.125 1068.78 161.125C1067.27 161.125 1066.04 162.352 1066.04 163.866C1066.04 165.38 1067.27 166.607 1068.78 166.607Z" fill="black"/>
<path d="M1064.52 235.443C1066.03 235.443 1067.26 234.216 1067.26 232.702C1067.26 231.188 1066.03 229.96 1064.52 229.96C1063 229.96 1061.78 231.188 1061.78 232.702C1061.78 234.216 1063 235.443 1064.52 235.443Z" fill="black"/>
<path d="M986.85 185.187C988.364 185.187 989.591 183.959 989.591 182.445C989.591 180.931 988.364 179.704 986.85 179.704C985.336 179.704 984.109 180.931 984.109 182.445C984.109 183.959 985.336 185.187 986.85 185.187Z" fill="black"/>
<path d="M1005.73 119.092C1007.25 119.092 1008.48 117.865 1008.48 116.351C1008.48 114.837 1007.25 113.61 1005.73 113.61C1004.22 113.61 1002.99 114.837 1002.99 116.351C1002.99 117.865 1004.22 119.092 1005.73 119.092Z" fill="black"/>
<path d="M1013.35 27.108C1014.86 27.108 1016.09 25.8807 1016.09 24.3667C1016.09 22.8528 1014.86 21.6255 1013.35 21.6255C1011.83 21.6255 1010.61 22.8528 1010.61 24.3667C1010.61 25.8807 1011.83 27.108 1013.35 27.108Z" fill="black"/>
<path d="M1087.36 34.7225C1088.88 34.7225 1090.1 33.4952 1090.1 31.9812C1090.1 30.4673 1088.88 29.24 1087.36 29.24C1085.85 29.24 1084.62 30.4673 1084.62 31.9812C1084.62 33.4952 1085.85 34.7225 1087.36 34.7225Z" fill="black"/>
<path d="M1150.72 15.5338C1152.23 15.5338 1153.46 14.3065 1153.46 12.7925C1153.46 11.2786 1152.23 10.0513 1150.72 10.0513C1149.2 10.0513 1147.97 11.2786 1147.97 12.7925C1147.97 14.3065 1149.2 15.5338 1150.72 15.5338Z" fill="black"/>
<path d="M1046.85 82.2376C1048.37 82.2376 1049.59 81.0103 1049.59 79.4964C1049.59 77.9824 1048.37 76.7551 1046.85 76.7551C1045.34 76.7551 1044.11 77.9824 1044.11 79.4964C1044.11 81.0103 1045.34 82.2376 1046.85 82.2376Z" fill="black"/>
<path d="M1093.45 119.092C1094.97 119.092 1096.2 117.865 1096.2 116.351C1096.2 114.837 1094.97 113.61 1093.45 113.61C1091.94 113.61 1090.71 114.837 1090.71 116.351C1090.71 117.865 1091.94 119.092 1093.45 119.092Z" fill="black"/>
</g>
<g clip-path="url(#clip10_507_736)">
<path d="M1218.33 243.667H974.667V487.333H1218.33V243.667Z" fill="white"/>
<path d="M1208.89 313.416L1290.52 323.133M1257.02 511.7L1197.32 468.145L1133.05 444.692L1068.78 407.533L986.85 426.112M986.85 426.112L1064.52 476.368L1013.2 511.548L986.85 426.112ZM986.85 426.112L914.664 393.826L1005.73 360.018L965.225 313.416L1013.2 267.881L953.65 224.478" stroke="black" stroke-width="0.385"/>
<path d="M965.225 313.417L1046.85 323.163L1093.45 360.018L1158.33 393.827L1068.63 407.38L1005.58 359.865M1087.36 519.315L1064.52 476.369" stroke="black" stroke-width="0.385"/>
<path d="M1133.05 444.692L1150.72 500.126L1197.32 468.145L1230.52 426.112L1158.33 393.826L1133.05 444.692ZM1133.05 444.692L1064.52 476.369L1068.78 407.533L1093.45 360.018L1138.84 325.6L1208.89 313.416L1150.56 256.307L1087.36 275.648L1064.52 232.702L1013.2 267.881L1046.85 323.163L1005.73 360.018L986.85 426.112L953.65 468.145L1013.35 511.7" stroke="black" stroke-width="0.385"/>
<path d="M1133.05 201.025L1150.87 256.612L1197.32 224.478M1158.33 393.826L1138.84 325.6M1138.84 325.6L1046.85 323.163L1087.36 275.648M1138.84 325.6L1249.4 360.018M1093.45 360.018H1005.73" stroke="black" stroke-width="0.385"/>
<path d="M907.049 256.459L1013.2 267.881L1087.36 275.648L1138.84 325.6L1150.56 256.307M1150.56 256.307L1257.02 268.033L1208.89 313.416L1249.4 360.018L1158.33 393.826L1197.32 468.145M1150.56 256.307L1064.52 232.702M1150.72 500.126L1064.52 476.369M986.85 182.446L1013.35 268.033M1005.73 360.018L895.17 325.6" stroke="black" stroke-width="0.385"/>
<path d="M1208.89 316.158C1210.41 316.158 1211.63 314.93 1211.63 313.416C1211.63 311.902 1210.41 310.675 1208.89 310.675C1207.38 310.675 1206.15 311.902 1206.15 313.416C1206.15 314.93 1207.38 316.158 1208.89 316.158Z" fill="black"/>
<path d="M1138.84 328.341C1140.35 328.341 1141.58 327.114 1141.58 325.6C1141.58 324.086 1140.35 322.858 1138.84 322.858C1137.32 322.858 1136.1 324.086 1136.1 325.6C1136.1 327.114 1137.32 328.341 1138.84 328.341Z" fill="black"/>
<path d="M1005.73 362.759C1007.25 362.759 1008.48 361.532 1008.48 360.018C1008.48 358.504 1007.25 357.276 1005.73 357.276C1004.22 357.276 1002.99 358.504 1002.99 360.018C1002.99 361.532 1004.22 362.759 1005.73 362.759Z" fill="black"/>
<path d="M1013.35 270.775C1014.86 270.775 1016.09 269.547 1016.09 268.033C1016.09 266.52 1014.86 265.292 1013.35 265.292C1011.83 265.292 1010.61 266.52 1010.61 268.033C1010.61 269.547 1011.83 270.775 1013.35 270.775Z" fill="black"/>
<path d="M1087.36 278.389C1088.88 278.389 1090.1 277.162 1090.1 275.648C1090.1 274.134 1088.88 272.907 1087.36 272.907C1085.85 272.907 1084.62 274.134 1084.62 275.648C1084.62 277.162 1085.85 278.389 1087.36 278.389Z" fill="black"/>
<path d="M1150.72 259.201C1152.23 259.201 1153.46 257.973 1153.46 256.459C1153.46 254.945 1152.23 253.718 1150.72 253.718C1149.2 253.718 1147.97 254.945 1147.97 256.459C1147.97 257.973 1149.2 259.201 1150.72 259.201Z" fill="black"/>
<path d="M1046.85 325.904C1048.37 325.904 1049.59 324.677 1049.59 323.163C1049.59 321.649 1048.37 320.422 1046.85 320.422C1045.34 320.422 1044.11 321.649 1044.11 323.163C1044.11 324.677 1045.34 325.904 1046.85 325.904Z" fill="black"/>
<path d="M1093.45 362.759C1094.97 362.759 1096.2 361.532 1096.2 360.018C1096.2 358.504 1094.97 357.276 1093.45 357.276C1091.94 357.276 1090.71 358.504 1090.71 360.018C1090.71 361.532 1091.94 362.759 1093.45 362.759Z" fill="black"/>
</g>
<g clip-path="url(#clip11_507_736)">
<path d="M1462 0H1218.33V243.667H1462V0Z" fill="white"/>
<path d="M1452.56 69.7496L1534.19 79.4658M1500.68 268.033L1440.98 224.478L1376.72 201.025L1312.45 163.866L1230.52 182.445M1230.52 182.445L1308.19 232.702L1256.86 267.881L1230.52 182.445ZM1230.52 182.445L1158.33 150.16L1249.4 116.351L1208.89 69.7496L1256.86 24.2144L1197.32 -19.1887" stroke="black" stroke-width="0.385"/>
<path d="M1208.89 69.7498L1290.52 79.4964L1337.12 116.351L1402 150.16L1312.3 163.714L1249.25 116.199M1331.03 275.648L1308.19 232.702" stroke="black" stroke-width="0.385"/>
<path d="M1376.72 201.025L1394.38 256.459L1440.98 224.478L1474.18 182.446L1402 150.16L1376.72 201.025ZM1376.72 201.025L1308.19 232.702L1312.45 163.866L1337.12 116.351L1382.5 81.9331L1452.56 69.7497L1394.23 12.6404L1331.03 31.9814L1308.19 -10.9648L1256.86 24.2145L1290.52 79.4964L1249.4 116.351L1230.52 182.446L1197.32 224.478L1257.02 268.033" stroke="black" stroke-width="0.385"/>
<path d="M1376.72 -42.6416L1394.53 12.9449L1440.98 -19.1887M1402 150.16L1382.5 81.933M1382.5 81.933L1290.52 79.4963L1331.03 31.9813M1382.5 81.933L1493.07 116.351M1337.12 116.351H1249.4" stroke="black" stroke-width="0.385"/>
<path d="M1150.72 12.7926L1256.86 24.2144L1331.03 31.9813L1382.5 81.933L1394.23 12.6403M1394.23 12.6403L1500.68 24.3667L1452.56 69.7497L1493.07 116.351L1402 150.16L1440.98 224.478M1394.23 12.6403L1308.19 -10.9649M1394.38 256.459L1308.19 232.702M1230.52 -61.2212L1257.02 24.3667M1249.4 116.351L1138.84 81.933" stroke="black" stroke-width="0.385"/>
<path d="M1452.56 72.4908C1454.07 72.4908 1455.3 71.2635 1455.3 69.7496C1455.3 68.2356 1454.07 67.0083 1452.56 67.0083C1451.04 67.0083 1449.82 68.2356 1449.82 69.7496C1449.82 71.2635 1451.04 72.4908 1452.56 72.4908Z" fill="black"/>
<path d="M1382.5 84.6742C1384.02 84.6742 1385.24 83.4469 1385.24 81.9329C1385.24 80.4189 1384.02 79.1917 1382.5 79.1917C1380.99 79.1917 1379.76 80.4189 1379.76 81.9329C1379.76 83.4469 1380.99 84.6742 1382.5 84.6742Z" fill="black"/>
<path d="M1402 152.901C1403.51 152.901 1404.74 151.674 1404.74 150.16C1404.74 148.646 1403.51 147.418 1402 147.418C1400.48 147.418 1399.26 148.646 1399.26 150.16C1399.26 151.674 1400.48 152.901 1402 152.901Z" fill="black"/>
<path d="M1440.98 227.219C1442.5 227.219 1443.72 225.992 1443.72 224.478C1443.72 222.964 1442.5 221.737 1440.98 221.737C1439.47 221.737 1438.24 222.964 1438.24 224.478C1438.24 225.992 1439.47 227.219 1440.98 227.219Z" fill="black"/>
<path d="M1376.72 203.766C1378.23 203.766 1379.46 202.539 1379.46 201.025C1379.46 199.511 1378.23 198.284 1376.72 198.284C1375.2 198.284 1373.98 199.511 1373.98 201.025C1373.98 202.539 1375.2 203.766 1376.72 203.766Z" fill="black"/>
<path d="M1312.45 166.607C1313.96 166.607 1315.19 165.38 1315.19 163.866C1315.19 162.352 1313.96 161.125 1312.45 161.125C1310.94 161.125 1309.71 162.352 1309.71 163.866C1309.71 165.38 1310.94 166.607 1312.45 166.607Z" fill="black"/>
<path d="M1308.19 235.443C1309.7 235.443 1310.93 234.216 1310.93 232.702C1310.93 231.188 1309.7 229.96 1308.19 229.96C1306.67 229.96 1305.44 231.188 1305.44 232.702C1305.44 234.216 1306.67 235.443 1308.19 235.443Z" fill="black"/>
<path d="M1230.52 185.187C1232.03 185.187 1233.26 183.959 1233.26 182.445C1233.26 180.931 1232.03 179.704 1230.52 179.704C1229 179.704 1227.78 180.931 1227.78 182.445C1227.78 183.959 1229 185.187 1230.52 185.187Z" fill="black"/>
<path d="M1249.4 119.092C1250.91 119.092 1252.14 117.865 1252.14 116.351C1252.14 114.837 1250.91 113.61 1249.4 113.61C1247.89 113.61 1246.66 114.837 1246.66 116.351C1246.66 117.865 1247.89 119.092 1249.4 119.092Z" fill="black"/>
<path d="M1257.02 27.108C1258.53 27.108 1259.76 25.8807 1259.76 24.3667C1259.76 22.8528 1258.53 21.6255 1257.02 21.6255C1255.5 21.6255 1254.27 22.8528 1254.27 24.3667C1254.27 25.8807 1255.5 27.108 1257.02 27.108Z" fill="black"/>
<path d="M1331.03 34.7225C1332.54 34.7225 1333.77 33.4952 1333.77 31.9812C1333.77 30.4673 1332.54 29.24 1331.03 29.24C1329.52 29.24 1328.29 30.4673 1328.29 31.9812C1328.29 33.4952 1329.52 34.7225 1331.03 34.7225Z" fill="black"/>
<path d="M1394.38 15.5338C1395.9 15.5338 1397.12 14.3065 1397.12 12.7925C1397.12 11.2786 1395.9 10.0513 1394.38 10.0513C1392.87 10.0513 1391.64 11.2786 1391.64 12.7925C1391.64 14.3065 1392.87 15.5338 1394.38 15.5338Z" fill="black"/>
<path d="M1290.52 82.2376C1292.03 82.2376 1293.26 81.0103 1293.26 79.4964C1293.26 77.9824 1292.03 76.7551 1290.52 76.7551C1289.01 76.7551 1287.78 77.9824 1287.78 79.4964C1287.78 81.0103 1289.01 82.2376 1290.52 82.2376Z" fill="black"/>
<path d="M1337.12 119.092C1338.63 119.092 1339.86 117.865 1339.86 116.351C1339.86 114.837 1338.63 113.61 1337.12 113.61C1335.61 113.61 1334.38 114.837 1334.38 116.351C1334.38 117.865 1335.61 119.092 1337.12 119.092Z" fill="black"/>
</g>
<g clip-path="url(#clip12_507_736)">
<path d="M1462 243.667H1218.33V487.333H1462V243.667Z" fill="white"/>
<path d="M1452.56 313.416L1534.19 323.133M1500.68 511.7L1440.98 468.145L1376.72 444.692L1312.45 407.533L1230.52 426.112M1230.52 426.112L1308.19 476.368L1256.86 511.548L1230.52 426.112ZM1230.52 426.112L1158.33 393.826L1249.4 360.018L1208.89 313.416L1256.86 267.881L1197.32 224.478" stroke="black" stroke-width="0.385"/>
<path d="M1208.89 313.417L1290.52 323.163L1337.12 360.018L1402 393.827L1312.3 407.38L1249.25 359.865M1331.03 519.315L1308.19 476.369" stroke="black" stroke-width="0.385"/>
<path d="M1376.72 444.692L1394.38 500.126L1440.98 468.145L1474.18 426.112L1402 393.826L1376.72 444.692ZM1376.72 444.692L1308.19 476.369L1312.45 407.533L1337.12 360.018L1382.5 325.6L1452.56 313.416L1394.23 256.307L1331.03 275.648L1308.19 232.702L1256.86 267.881L1290.52 323.163L1249.4 360.018L1230.52 426.112L1197.32 468.145L1257.02 511.7" stroke="black" stroke-width="0.385"/>
<path d="M1376.72 201.025L1394.53 256.612L1440.98 224.478M1402 393.826L1382.5 325.6M1382.5 325.6L1290.52 323.163L1331.03 275.648M1382.5 325.6L1493.07 360.018M1337.12 360.018H1249.4" stroke="black" stroke-width="0.385"/>
<path d="M1150.72 256.459L1256.86 267.881L1331.03 275.648L1382.5 325.6L1394.23 256.307M1394.23 256.307L1500.68 268.033L1452.56 313.416L1493.07 360.018L1402 393.826L1440.98 468.145M1394.23 256.307L1308.19 232.702M1394.38 500.126L1308.19 476.369M1230.52 182.446L1257.02 268.033M1249.4 360.018L1138.84 325.6" stroke="black" stroke-width="0.385"/>
<path d="M1452.56 316.158C1454.07 316.158 1455.3 314.93 1455.3 313.416C1455.3 311.902 1454.07 310.675 1452.56 310.675C1451.04 310.675 1449.82 311.902 1449.82 313.416C1449.82 314.93 1451.04 316.158 1452.56 316.158Z" fill="black"/>
<path d="M1382.5 328.341C1384.02 328.341 1385.24 327.114 1385.24 325.6C1385.24 324.086 1384.02 322.858 1382.5 322.858C1380.99 322.858 1379.76 324.086 1379.76 325.6C1379.76 327.114 1380.99 328.341 1382.5 328.341Z" fill="black"/>
<path d="M1249.4 362.759C1250.91 362.759 1252.14 361.532 1252.14 360.018C1252.14 358.504 1250.91 357.276 1249.4 357.276C1247.89 357.276 1246.66 358.504 1246.66 360.018C1246.66 361.532 1247.89 362.759 1249.4 362.759Z" fill="black"/>
<path d="M1257.02 270.775C1258.53 270.775 1259.76 269.547 1259.76 268.033C1259.76 266.52 1258.53 265.292 1257.02 265.292C1255.5 265.292 1254.27 266.52 1254.27 268.033C1254.27 269.547 1255.5 270.775 1257.02 270.775Z" fill="black"/>
<path d="M1331.03 278.389C1332.54 278.389 1333.77 277.162 1333.77 275.648C1333.77 274.134 1332.54 272.907 1331.03 272.907C1329.52 272.907 1328.29 274.134 1328.29 275.648C1328.29 277.162 1329.52 278.389 1331.03 278.389Z" fill="black"/>
<path d="M1394.38 259.201C1395.9 259.201 1397.12 257.973 1397.12 256.459C1397.12 254.945 1395.9 253.718 1394.38 253.718C1392.87 253.718 1391.64 254.945 1391.64 256.459C1391.64 257.973 1392.87 259.201 1394.38 259.201Z" fill="black"/>
<path d="M1290.52 325.904C1292.03 325.904 1293.26 324.677 1293.26 323.163C1293.26 321.649 1292.03 320.422 1290.52 320.422C1289.01 320.422 1287.78 321.649 1287.78 323.163C1287.78 324.677 1289.01 325.904 1290.52 325.904Z" fill="black"/>
<path d="M1337.12 362.759C1338.63 362.759 1339.86 361.532 1339.86 360.018C1339.86 358.504 1338.63 357.276 1337.12 357.276C1335.61 357.276 1334.38 358.504 1334.38 360.018C1334.38 361.532 1335.61 362.759 1337.12 362.759Z" fill="black"/>
</g>
</g>
</g>
<defs>
<clipPath id="clip0_507_736">
<rect width="1462" height="369" fill="white"/>
</clipPath>
<clipPath id="clip1_507_736">
<rect width="243.667" height="243.667" fill="white"/>
</clipPath>
<clipPath id="clip2_507_736">
<rect width="243.667" height="243.667" fill="white" transform="translate(0 243.667)"/>
</clipPath>
<clipPath id="clip3_507_736">
<rect width="243.667" height="243.667" fill="white" transform="translate(243.667)"/>
</clipPath>
<clipPath id="clip4_507_736">
<rect width="243.667" height="243.667" fill="white" transform="translate(243.667 243.667)"/>
</clipPath>
<clipPath id="clip5_507_736">
<rect width="243.667" height="243.667" fill="white" transform="translate(487.333)"/>
</clipPath>
<clipPath id="clip6_507_736">
<rect width="243.667" height="243.667" fill="white" transform="translate(487.333 243.667)"/>
</clipPath>
<clipPath id="clip7_507_736">
<rect width="243.667" height="243.667" fill="white" transform="translate(731)"/>
</clipPath>
<clipPath id="clip8_507_736">
<rect width="243.667" height="243.667" fill="white" transform="translate(731 243.667)"/>
</clipPath>
<clipPath id="clip9_507_736">
<rect width="243.667" height="243.667" fill="white" transform="translate(974.667)"/>
</clipPath>
<clipPath id="clip10_507_736">
<rect width="243.667" height="243.667" fill="white" transform="translate(974.667 243.667)"/>
</clipPath>
<clipPath id="clip11_507_736">
<rect width="243.667" height="243.667" fill="white" transform="translate(1218.33)"/>
</clipPath>
<clipPath id="clip12_507_736">
<rect width="243.667" height="243.667" fill="white" transform="translate(1218.33 243.667)"/>
</clipPath>
</defs>
</svg>
