<svg width="126" height="44" viewBox="0 0 126 44" fill="none" xmlns="http://www.w3.org/2000/svg">
<g clip-path="url(#clip0_538_83)">
<path d="M14.2306 9.65096C14.5043 9.52809 16.4479 8.56188 16.4479 5.49569C16.4479 2.64173 14.3256 0 9.37724 0H0.882405C0.184275 0 -3.05176e-05 0.335103 -3.05176e-05 0.882438V19.1176C-3.05176e-05 19.665 0.184275 20.0001 0.882405 20.0001H9.8017C14.0184 20.0001 17.0231 18.0285 17.0231 14.1749C17.0231 10.8964 14.4764 9.74032 14.2306 9.65096ZM9.86314 15.6884H4.764V4.27815H9.37724C10.9578 4.27815 11.8961 4.61325 11.8961 5.98159C11.8961 7.16562 11.1365 7.80231 9.37724 7.80231H8.9807C8.28257 7.80231 8.10385 8.13741 8.10385 8.67916V10.9858C8.10385 11.5331 8.28257 11.8682 8.9807 11.8682H9.67883C11.1365 11.8682 12.1977 12.2927 12.1977 13.7169C12.1977 15.0852 11.3488 15.6884 9.86314 15.6884ZM35.7777 0.0335096H32.7729C32.2256 0.0335096 31.8961 0.212231 31.8961 0.910362V13.231C31.8961 15.1467 30.6171 15.8548 28.6177 15.8548C26.6126 15.8548 25.3672 15.1467 25.3672 13.231V0.910362C25.3672 0.212231 25.0377 0.0335096 24.4903 0.0335096H21.4856C20.9383 0.0335096 20.6032 0.212231 20.6032 0.910362V13.9012C20.6032 18.6652 25.0042 20.0001 28.6177 20.0001C32.2256 20.0001 36.6601 18.6652 36.6601 13.9012V0.910362C36.6601 0.212231 36.325 0.0335096 35.7777 0.0335096ZM49.5839 15.8448H47.6738V4.25022H49.4945C50.1927 4.25022 50.377 3.91512 50.377 3.36778V0.910363C50.377 0.368613 50.1927 0.0335102 49.4945 0.0335102H41.0611C40.363 0.0335102 40.1787 0.368613 40.1787 0.910363V3.36778C40.1787 3.91512 40.363 4.25022 41.0611 4.25022H42.9098V15.8448H40.9997C40.3016 15.8448 40.1173 16.1743 40.1173 16.7216V19.1176C40.1173 19.665 40.3016 20.0001 40.9997 20.0001H49.5839C50.282 20.0001 50.4663 19.665 50.4663 19.1176V16.7216C50.4663 16.1743 50.282 15.8448 49.5839 15.8448ZM67.886 15.7498H59.1455V0.910363C59.1455 0.212232 58.8104 0.0335102 58.263 0.0335102H55.2583C54.7165 0.0335102 54.3814 0.212232 54.3814 0.910363V19.1176C54.3814 19.665 54.5657 20.0001 55.2583 20.0001H67.886C68.5842 20.0001 68.7629 19.665 68.7629 19.1176V16.6323C68.7629 16.0849 68.5842 15.7498 67.886 15.7498ZM79.7207 0.0335102H72.9237C72.2256 0.0335102 72.0413 0.368613 72.0413 0.910363V19.1176C72.0413 19.665 72.2256 20.0001 72.9237 20.0001H79.7207C83.3286 20.0001 87.8805 17.9392 87.8805 13.1695V6.85844C87.8805 2.1279 83.3286 0.0335102 79.7207 0.0335102ZM83.1164 12.7451C83.1164 14.6887 81.7202 15.7833 79.7207 15.7833H76.8053V4.25022H79.7207C81.7202 4.25022 83.1164 5.37282 83.1164 7.2829V12.7451ZM106.244 15.7498H96.5596V11.7454H104.697C105.395 11.7454 105.574 11.4103 105.574 10.8685V8.50044C105.574 7.95311 105.395 7.61801 104.697 7.61801H96.5596V4.31166H105.725C106.423 4.31166 106.607 3.97655 106.607 3.42922V0.910363C106.607 0.368613 106.423 0.0335102 105.725 0.0335102H92.6501C91.9519 0.0335102 91.7676 0.368613 91.7676 0.910363V19.1176C91.7676 19.665 91.9519 20.0001 92.6501 20.0001H106.244C106.942 20.0001 107.121 19.665 107.121 19.1176V16.6323C107.121 16.0849 106.942 15.7498 106.244 15.7498ZM124.3 15.7498H115.56V0.910363C115.56 0.212232 115.225 0.0335102 114.677 0.0335102H111.673C111.131 0.0335102 110.796 0.212232 110.796 0.910363V19.1176C110.796 19.665 110.975 20.0001 111.673 20.0001H124.3C124.999 20.0001 125.177 19.665 125.177 19.1176V16.6323C125.177 16.0849 124.999 15.7498 124.3 15.7498Z" fill="white"/>
</g>
<path d="M3.5 35.86C4.17333 35.86 4.74667 36.1167 5.22 36.63C5.7 37.1367 5.94 37.76 5.94 38.5C5.94 39.24 5.7 39.8667 5.22 40.38C4.74667 40.8867 4.17333 41.14 3.5 41.14C2.8 41.14 2.26 40.8967 1.88 40.41V41H0.59V34H1.88V36.59C2.26 36.1033 2.8 35.86 3.5 35.86ZM2.27 39.52C2.53 39.78 2.86 39.91 3.26 39.91C3.66 39.91 3.99 39.78 4.25 39.52C4.51667 39.2533 4.65 38.9133 4.65 38.5C4.65 38.0867 4.51667 37.75 4.25 37.49C3.99 37.2233 3.66 37.09 3.26 37.09C2.86 37.09 2.53 37.2233 2.27 37.49C2.01 37.75 1.88 38.0867 1.88 38.5C1.88 38.9133 2.01 39.2533 2.27 39.52ZM10.1498 36H11.4398V41H10.1498V40.44C9.83643 40.9067 9.33977 41.14 8.65977 41.14C8.1131 41.14 7.65977 40.9567 7.29977 40.59C6.94643 40.2233 6.76977 39.7167 6.76977 39.07V36H8.05977V38.91C8.05977 39.2433 8.14977 39.5 8.32977 39.68C8.50977 39.8533 8.74977 39.94 9.04977 39.94C9.3831 39.94 9.64977 39.8367 9.84977 39.63C10.0498 39.4233 10.1498 39.1133 10.1498 38.7V36ZM13.2613 35.4C13.0479 35.4 12.8613 35.3233 12.7013 35.17C12.5479 35.01 12.4713 34.8233 12.4713 34.61C12.4713 34.3967 12.5479 34.21 12.7013 34.05C12.8613 33.89 13.0479 33.81 13.2613 33.81C13.4813 33.81 13.6679 33.89 13.8213 34.05C13.9813 34.21 14.0613 34.3967 14.0613 34.61C14.0613 34.8233 13.9813 35.01 13.8213 35.17C13.6679 35.3233 13.4813 35.4 13.2613 35.4ZM12.6213 41V36H13.9113V41H12.6213ZM15.092 41V33.7H16.382V41H15.092ZM20.4227 37.24H19.2927V39.32C19.2927 39.4933 19.336 39.62 19.4227 39.7C19.5093 39.78 19.636 39.8267 19.8027 39.84C19.9693 39.8467 20.176 39.8433 20.4227 39.83V41C19.536 41.1 18.9093 41.0167 18.5427 40.75C18.1827 40.4833 18.0027 40.0067 18.0027 39.32V37.24H17.1327V36H18.0027V34.99L19.2927 34.6V36H20.4227V37.24ZM26.8203 35.86C27.4936 35.86 28.067 36.1167 28.5403 36.63C29.0203 37.1367 29.2603 37.76 29.2603 38.5C29.2603 39.24 29.0203 39.8667 28.5403 40.38C28.067 40.8867 27.4936 41.14 26.8203 41.14C26.1203 41.14 25.5803 40.8967 25.2003 40.41V41H23.9103V34H25.2003V36.59C25.5803 36.1033 26.1203 35.86 26.8203 35.86ZM25.5903 39.52C25.8503 39.78 26.1803 39.91 26.5803 39.91C26.9803 39.91 27.3103 39.78 27.5703 39.52C27.837 39.2533 27.9703 38.9133 27.9703 38.5C27.9703 38.0867 27.837 37.75 27.5703 37.49C27.3103 37.2233 26.9803 37.09 26.5803 37.09C26.1803 37.09 25.8503 37.2233 25.5903 37.49C25.3303 37.75 25.2003 38.0867 25.2003 38.5C25.2003 38.9133 25.3303 39.2533 25.5903 39.52ZM33.2348 36H34.6148L32.7948 41C32.5348 41.72 32.1881 42.24 31.7548 42.56C31.3281 42.8867 30.7948 43.0333 30.1548 43V41.8C30.5014 41.8067 30.7748 41.7333 30.9748 41.58C31.1814 41.4267 31.3448 41.18 31.4648 40.84L29.4148 36H30.8248L32.1248 39.36L33.2348 36Z" fill="white"/>
<g clip-path="url(#clip1_538_83)">
<path d="M67.4217 32.2089C67.3945 34.5023 65.5033 36.3641 63.1768 36.3371C60.8503 36.3101 58.9863 34.4349 59 32.128C59.0272 29.8211 60.9183 27.9728 63.2448 27.9998C65.585 28.0133 67.4489 29.902 67.4217 32.2089Z" fill="#21AE35"/>
<path d="M63.2041 33.2748V33.8954H61.1224V30.5767H63.1769V31.1972H61.7755V31.9122H63.0544V32.5193H61.7755V33.2748H63.2041Z" fill="white"/>
<path d="M65.6122 33.2748V33.8954H63.6666V30.5767H64.3333V33.2748H65.6122Z" fill="white"/>
<path d="M69.9932 35.6627C69.9932 36.3507 69.4354 36.8904 68.7551 36.8904C68.0612 36.8904 67.517 36.3372 67.517 35.6627C67.517 34.9747 68.0748 34.4351 68.7551 34.4351C69.4354 34.4351 69.9932 34.9882 69.9932 35.6627Z" fill="white"/>
<path d="M56.905 30.3879C55.5717 28.9444 52.7826 28 49.8302 28C49.286 28 48.7281 28.027 48.1839 28.0944C44.5241 28.5396 41.4764 30.118 39.8438 32.425C38.9866 33.5987 38.769 34.9342 39.2451 36.0405C39.6397 36.9444 40.6873 38.0776 43.422 38.4013C43.5445 38.4148 43.7349 38.4013 43.8302 38.1855L44.2792 37.2546C44.3064 37.2007 44.3064 37.1332 44.2656 37.0793C44.2383 37.0253 44.1839 36.9848 44.1159 36.9848C41.7758 36.7825 40.9594 36 40.6737 35.3794C40.388 34.7589 40.5377 34.0034 41.0819 33.2479C42.4424 31.3322 45.0547 30.0236 48.2383 29.6594C48.6873 29.6054 49.1499 29.5784 49.6125 29.5784C52.1023 29.5784 54.5649 30.3744 55.6125 31.5076C55.9662 31.8853 56.1159 32.2631 56.0887 32.6408C55.939 34.3137 52.3744 35.7437 49.5445 35.7437C49.4764 35.7437 49.4084 35.7437 49.3404 35.7437L50.6057 33.0051C50.6465 32.9241 50.6329 32.8162 50.5513 32.7622L49.6533 32.0877C49.6125 32.0472 49.5445 32.0337 49.4764 32.0472C48.2928 32.3035 46.5785 32.6948 45.7894 33.882C45.49 34.3406 45.422 34.8803 45.5989 35.4064C45.8166 36.054 46.4152 36.5936 47.2179 36.8904L44.388 43.0691C44.3472 43.1501 44.3608 43.258 44.4424 43.312L45.286 43.9595C45.3268 43.9865 45.3676 44 45.4084 44C45.422 44 45.4492 44 45.4628 43.9865C45.5309 43.973 45.5853 43.9191 45.6125 43.8651L48.6601 37.2277C48.973 37.2681 49.2996 37.2816 49.6397 37.2816C51.3676 37.2816 53.3132 36.8229 54.837 36.054C56.5921 35.1636 57.6125 33.9494 57.7349 32.6273C57.8302 31.8314 57.5309 31.0624 56.905 30.3879ZM48.6737 33.7201L47.871 35.4874C47.5445 35.3524 47.2315 35.1096 47.1363 34.8398C47.1091 34.7454 47.1091 34.6509 47.1771 34.5565C47.3676 34.1653 48.1703 33.8415 48.6737 33.7201Z" fill="white"/>
<path d="M86.9183 40.1684L85.8707 39.4803C85.8299 39.4533 85.7619 39.4399 85.7074 39.4668C84.17 40.02 82.5918 40.9508 81.4081 41.7198C82.2517 39.4533 82.5646 38.5899 82.6734 38.3066C82.7006 38.2392 82.687 38.1447 82.619 38.0908L81.7891 37.4702C81.7346 37.4297 81.6666 37.4162 81.6122 37.4432C79.9659 38.0908 78.7687 38.9137 77.7891 39.7906L78.238 38.563C78.2653 38.4955 78.238 38.4011 78.1836 38.3606L77.3401 37.7265C77.2721 37.6726 77.1632 37.6861 77.1088 37.7535C76.5374 38.3471 75.9387 38.6979 75.3265 38.7788C75.2448 38.5495 75.1088 38.3471 74.9319 38.1717C74.5782 37.8345 74.0884 37.5781 72.8911 37.7805C72.8231 37.794 72.7823 37.8345 72.7551 37.8884C72.5918 38.3201 72.4557 38.6844 72.3877 38.8732C72.3605 38.9542 72.3741 39.0351 72.4149 39.1026C72.6734 39.4399 73.2448 39.7906 73.9523 39.966C73.4353 41.3151 71.8843 42.7721 70.7006 42.5562C70.5374 42.5292 70.2516 42.3269 70.1428 41.9896C70.0476 41.6658 70.0204 40.7619 71.7074 39.1026C71.7482 39.0621 71.7619 39.0216 71.7619 38.9677C71.7619 38.9137 71.7346 38.8732 71.6938 38.8328L70.8911 38.2257C70.8231 38.1717 70.7278 38.1852 70.6598 38.2392L67.4625 41.1127L68.4693 38.428C68.4965 38.3471 68.4693 38.2662 68.4013 38.2257L67.585 37.6186C67.517 37.5781 67.4353 37.5781 67.3673 37.6186L63.9795 40.3437C63.8571 40.2088 63.7346 40.0874 63.6258 39.9795C63.3401 39.7097 63.0816 39.4533 63.0816 39.224C63.0816 39.1026 63.1496 38.8193 63.585 38.3606C63.6122 38.3201 63.6394 38.2797 63.6258 38.2257C63.6258 38.1717 63.5986 38.1313 63.5578 38.1043L62.7414 37.4837C62.6734 37.4297 62.5782 37.4432 62.5238 37.4972C61.1904 38.6304 60.1836 39.4803 59.4353 40.1144C59.4217 40.1009 59.4081 40.0874 59.3945 40.0739C58.7823 39.5073 58.5102 39.2645 59.3129 38.3201C59.3401 38.2797 59.3537 38.2392 59.3537 38.1852C59.3537 38.1313 59.3265 38.0908 59.2857 38.0638L58.4829 37.4567C58.4149 37.4028 58.3197 37.4162 58.2517 37.4702L54.0612 41.5984L54.4829 40.5191C54.5238 40.4382 54.4965 40.3572 54.4285 40.3033L53.5306 39.6422C53.4897 39.6152 53.4489 39.6017 53.3945 39.6017C53.3401 39.6152 53.2993 39.6422 53.2721 39.6692C51.5442 42.111 50.4829 42.6372 49.7482 42.6372C48.4285 42.6372 49.3129 40.9508 50.1972 40.1549C50.8095 39.6017 52.4557 38.3606 54.7414 39.3454C54.8367 39.3859 54.9319 39.3454 54.9727 39.2645L55.3945 38.3741C55.4217 38.3336 55.4217 38.2797 55.3945 38.2392C55.3809 38.1987 55.3401 38.1582 55.2993 38.1447C53.1904 37.2274 50.9591 37.6591 49.2721 39.1835C48.034 40.3168 47.4625 41.7737 47.8435 42.8125C48.102 43.5141 48.7687 43.9727 49.6802 43.9727C50.3197 43.9727 51.2993 43.7974 52.5918 42.5832L52.5102 43.0014C52.4965 43.0689 52.5238 43.1363 52.5782 43.1768C52.6326 43.2173 53.1904 43.6355 53.4489 43.8243C53.517 43.8783 53.6122 43.8648 53.6802 43.8108L57.585 39.966C57.7755 40.3977 58.102 40.7215 58.3741 40.9778C57.9931 41.3016 57.721 41.5444 57.517 41.7198C56.9047 42.2459 56.5374 42.5292 56.0068 42.9474C55.9523 42.9879 55.9115 43.1093 56.0068 43.1768C56.0068 43.1768 56.7278 43.7164 56.9727 43.8918C57.068 43.9592 57.1088 43.9997 57.2585 43.9862C58.238 43.9053 59.4761 43.3387 60.0476 42.2189C60.2517 41.8277 60.2653 41.477 60.1836 41.1802C60.6326 40.8024 61.1632 40.3437 61.8163 39.7906C61.9931 40.2628 62.3605 40.627 62.6598 40.9238C62.7687 41.0183 62.8503 41.1127 62.9047 41.1802C62.9047 41.1802 61.0408 42.7046 60.4965 43.1228C60.4421 43.1633 60.4013 43.2847 60.4965 43.3522C60.4965 43.3522 60.9047 43.7029 61.1496 43.8783C61.2448 43.9458 61.2857 43.9862 61.4353 43.9727C62.5646 43.8783 64.0476 43.1228 64.4421 41.6388H64.4557L66.3741 40.0874L65.2993 42.9744C65.2721 43.0419 65.2993 43.1363 65.3537 43.1768L66.1292 43.7569C66.1972 43.8108 66.2925 43.7974 66.3605 43.7434L68.7278 41.6254C68.7278 41.8682 68.7551 42.165 68.8095 42.3404C69.0816 43.2307 69.8299 43.7299 70.4013 43.8378C72.0884 44.1616 74.5646 42.5427 75.2721 40.1009C75.6258 40.0739 75.9659 39.993 76.3061 39.8716L75.204 42.8665C75.1768 42.934 75.204 43.0284 75.2721 43.0689L76.1156 43.6894C76.1564 43.7164 76.2108 43.7299 76.2653 43.7164C76.3197 43.7029 76.3605 43.6759 76.3877 43.622C76.7414 42.9744 78.0612 40.7485 80.8911 39.224C80.4013 40.5191 80.102 41.3286 79.4625 43.0958C79.4353 43.1768 79.4625 43.2577 79.5306 43.2982L80.4149 43.8783C80.4829 43.9188 80.5646 43.9188 80.619 43.8783C81.3537 43.3252 84.4149 41.1397 86.8639 40.4786C86.9319 40.4651 86.9863 40.4112 86.9863 40.3302C87.0136 40.2763 86.9863 40.2088 86.9183 40.1684Z" fill="white"/>
</g>
<defs>
<clipPath id="clip0_538_83">
<rect width="125.177" height="20" fill="white"/>
</clipPath>
<clipPath id="clip1_538_83">
<rect width="48" height="16" fill="white" transform="translate(39 28)"/>
</clipPath>
</defs>
</svg>
