<svg width="126" height="44" fill="none" xmlns="http://www.w3.org/2000/svg"><g clip-path="url(#a)"><path d="M14.23 9.65c.274-.122 2.218-1.088 2.218-4.154C16.448 2.642 14.326 0 9.378 0H.881C.184 0 0 .335 0 .882v18.236c0 .547.184.882.882.882h8.92c4.216 0 7.221-1.971 7.221-5.825 0-3.279-2.547-4.435-2.792-4.524Zm-4.367 6.038H4.764V4.278h4.613c1.58 0 2.52.335 2.52 1.704 0 1.184-.76 1.82-2.52 1.82h-.396c-.698 0-.877.335-.877.877v2.307c0 .547.179.882.877.882h.698c1.457 0 2.519.425 2.519 1.849 0 1.368-.85 1.971-2.335 1.971ZM35.778.033h-3.005c-.547 0-.877.18-.877.877v12.32c0 1.917-1.279 2.625-3.278 2.625-2.005 0-3.25-.708-3.25-2.624V.91c0-.699-.33-.878-.878-.878h-3.004c-.548 0-.883.18-.883.877v12.991c0 4.764 4.401 6.099 8.015 6.099 3.608 0 8.042-1.335 8.042-6.099V.911c0-.699-.335-.878-.882-.878Zm13.806 15.812h-1.91V4.25h1.82c.699 0 .883-.335.883-.882V.91c0-.541-.184-.877-.883-.877h-8.433c-.698 0-.882.336-.882.877v2.458c0 .547.184.882.882.882h1.849v11.595H41c-.698 0-.883.33-.883.877v2.396c0 .547.185.882.883.882h8.584c.698 0 .882-.335.882-.882v-2.396c0-.548-.184-.877-.882-.877Zm18.302-.095h-8.74V.91c0-.698-.336-.877-.883-.877h-3.005c-.541 0-.877.18-.877.877v18.208c0 .547.185.882.877.882h12.628c.698 0 .877-.335.877-.882v-2.486c0-.547-.179-.882-.877-.882ZM79.721.033h-6.797c-.698 0-.883.336-.883.877v18.208c0 .547.185.882.883.882h6.797c3.608 0 8.16-2.06 8.16-6.83V6.857c0-4.73-4.552-6.825-8.16-6.825Zm3.395 12.712c0 1.944-1.396 3.038-3.395 3.038h-2.916V4.25h2.916c2 0 3.395 1.123 3.395 3.033v5.462Zm23.128 3.005H96.56v-4.005h8.137c.698 0 .877-.335.877-.877V8.5c0-.547-.179-.882-.877-.882H96.56V4.312h9.165c.698 0 .882-.336.882-.883V.91c0-.541-.184-.877-.882-.877H92.65c-.698 0-.882.336-.882.877v18.208c0 .547.184.882.882.882h13.594c.698 0 .877-.335.877-.882v-2.486c0-.547-.179-.882-.877-.882Zm18.056 0h-8.74V.91c0-.698-.335-.877-.883-.877h-3.004c-.542 0-.877.18-.877.877v18.208c0 .547.179.882.877.882H124.3c.699 0 .877-.335.877-.882v-2.486c0-.547-.178-.882-.877-.882Z" fill="#000"/></g><path d="M3.5 35.86c.673 0 1.247.257 1.72.77.48.507.72 1.13.72 1.87 0 .74-.24 1.367-.72 1.88-.473.507-1.047.76-1.72.76-.7 0-1.24-.243-1.62-.73V41H.59v-7h1.29v2.59c.38-.487.92-.73 1.62-.73Zm-1.23 3.66c.26.26.59.39.99.39s.73-.13.99-.39c.267-.267.4-.607.4-1.02 0-.413-.133-.75-.4-1.01-.26-.267-.59-.4-.99-.4s-.73.133-.99.4c-.26.26-.39.597-.39 1.01 0 .413.13.753.39 1.02ZM10.15 36h1.29v5h-1.29v-.56c-.314.467-.81.7-1.49.7-.547 0-1-.183-1.36-.55-.354-.367-.53-.873-.53-1.52V36h1.29v2.91c0 .333.09.59.27.77.18.173.42.26.72.26.333 0 .6-.103.8-.31.2-.207.3-.517.3-.93V36Zm3.111-.6a.784.784 0 0 1-.79-.79c0-.213.077-.4.23-.56.16-.16.347-.24.56-.24.22 0 .407.08.56.24.16.16.24.347.24.56 0 .213-.08.4-.24.56a.762.762 0 0 1-.56.23Zm-.64 5.6v-5h1.29v5h-1.29Zm2.471 0v-7.3h1.29V41h-1.29Zm5.33-3.76h-1.13v2.08c0 .173.044.3.13.38.087.08.214.127.38.14.167.007.374.003.62-.01V41c-.886.1-1.513.017-1.88-.25-.36-.267-.54-.743-.54-1.43v-2.08h-.87V36h.87v-1.01l1.29-.39V36h1.13v1.24Zm6.398-1.38c.674 0 1.247.257 1.72.77.48.507.72 1.13.72 1.87 0 .74-.24 1.367-.72 1.88-.473.507-1.046.76-1.72.76-.7 0-1.24-.243-1.62-.73V41h-1.29v-7h1.29v2.59c.38-.487.92-.73 1.62-.73Zm-1.23 3.66c.26.26.59.39.99.39s.73-.13.99-.39c.267-.267.4-.607.4-1.02 0-.413-.133-.75-.4-1.01-.26-.267-.59-.4-.99-.4s-.73.133-.99.4c-.26.26-.39.597-.39 1.01 0 .413.13.753.39 1.02ZM33.235 36h1.38l-1.82 5c-.26.72-.607 1.24-1.04 1.56-.427.327-.96.473-1.6.44v-1.2c.346.007.62-.067.82-.22.206-.153.37-.4.49-.74L29.415 36h1.41l1.3 3.36 1.11-3.36Z" fill="#000"/><g clip-path="url(#b)"><path d="M67.422 32.21a4.19 4.19 0 0 1-4.245 4.127c-2.327-.027-4.19-1.902-4.177-4.209A4.182 4.182 0 0 1 63.245 28c2.34.014 4.204 1.902 4.177 4.21Z" fill="#00CF91"/><path d="M63.204 33.275v.62h-2.081v-3.318h2.054v.62h-1.401v.715h1.278v.608h-1.278v.755h1.428ZM65.612 33.275v.62h-1.945v-3.318h.666v2.698h1.28Z" fill="#fff"/><path d="M69.993 35.663c0 .688-.558 1.227-1.238 1.227a1.229 1.229 0 0 1-1.238-1.227c0-.688.558-1.228 1.238-1.228.68 0 1.238.553 1.238 1.228ZM56.905 30.388C55.572 28.944 52.783 28 49.83 28c-.544 0-1.102.027-1.646.095-3.66.445-6.708 2.023-8.34 4.33-.857 1.174-1.075 2.51-.599 3.616.395.904 1.442 2.037 4.177 2.36.123.014.313 0 .408-.215l.45-.931a.165.165 0 0 0-.014-.176.167.167 0 0 0-.15-.094c-2.34-.202-3.157-.985-3.442-1.605-.286-.621-.136-1.377.408-2.132 1.36-1.916 3.973-3.224 7.156-3.588.45-.055.912-.081 1.374-.081 2.49 0 4.953.796 6 1.929.354.378.504.755.477 1.133-.15 1.673-3.715 3.103-6.544 3.103h-.205l1.266-2.739c.04-.08.027-.189-.055-.243l-.898-.674c-.04-.04-.108-.054-.177-.04-1.183.256-2.898.647-3.687 1.834-.299.459-.367.998-.19 1.525.218.647.816 1.187 1.619 1.484l-2.83 6.178c-.04.081-.027.19.054.243l.844.648a.22.22 0 0 0 .122.04c.014 0 .041 0 .055-.013a.227.227 0 0 0 .15-.122l3.047-6.637c.313.04.64.054.98.054 1.728 0 3.673-.459 5.197-1.228 1.755-.89 2.775-2.104 2.898-3.427.095-.796-.204-1.565-.83-2.239Zm-8.231 3.332-.803 1.767c-.327-.134-.64-.377-.735-.647a.307.307 0 0 1 .041-.283c.19-.392.993-.715 1.497-.837Z" fill="#000"/><path d="m86.918 40.169-1.047-.688a.173.173 0 0 0-.163-.014c-1.538.553-3.116 1.484-4.3 2.253.844-2.266 1.157-3.13 1.266-3.413a.19.19 0 0 0-.055-.216l-.83-.62c-.054-.041-.122-.054-.177-.027a12.36 12.36 0 0 0-3.823 2.347l.45-1.228a.187.187 0 0 0-.055-.202l-.844-.634a.17.17 0 0 0-.231.027c-.572.593-1.17.944-1.782 1.025a1.619 1.619 0 0 0-.395-.607c-.354-.337-.844-.594-2.04-.391a.187.187 0 0 0-.137.108c-.163.431-.3.796-.367.984a.27.27 0 0 0 .027.23c.258.337.83.688 1.537.863-.517 1.35-2.068 2.806-3.251 2.59-.164-.026-.45-.229-.558-.566-.095-.324-.123-1.228 1.564-2.887.041-.04.055-.081.055-.135 0-.054-.027-.095-.068-.135l-.803-.607c-.068-.054-.163-.04-.231.013l-3.197 2.874 1.006-2.685c.028-.08 0-.162-.068-.202l-.816-.607a.21.21 0 0 0-.218 0l-3.387 2.725a9.552 9.552 0 0 0-.354-.364c-.286-.27-.544-.526-.544-.756 0-.121.068-.404.503-.863.027-.04.054-.081.04-.135a.142.142 0 0 0-.067-.121l-.816-.621a.167.167 0 0 0-.218.013c-1.334 1.134-2.34 1.984-3.089 2.618l-.04-.04c-.613-.567-.885-.81-.082-1.755a.227.227 0 0 0 .04-.135.142.142 0 0 0-.067-.121l-.803-.607c-.068-.054-.163-.04-.231.014l-4.19 4.128.421-1.08c.04-.08.014-.161-.054-.215l-.898-.662a.231.231 0 0 0-.136-.04.264.264 0 0 0-.123.067c-1.728 2.442-2.789 2.968-3.524 2.968-1.32 0-.435-1.686.45-2.482.611-.553 2.258-1.794 4.544-.81.095.041.19 0 .23-.08l.422-.89a.122.122 0 0 0 0-.136.164.164 0 0 0-.095-.094c-2.108-.917-4.34-.486-6.027 1.039-1.238 1.133-1.81 2.59-1.428 3.629.258.701.925 1.16 1.836 1.16.64 0 1.62-.175 2.912-1.39l-.082.419a.175.175 0 0 0 .068.175c.055.04.612.459.871.648.068.053.163.04.231-.014l3.905-3.845c.19.432.517.756.79 1.012-.382.324-.654.567-.858.742-.612.526-.98.81-1.51 1.228-.055.04-.096.162 0 .229 0 0 .72.54.966.715.095.067.136.108.285.094.98-.08 2.218-.647 2.79-1.767.204-.391.217-.742.136-1.039.449-.377.98-.836 1.632-1.39.177.473.544.837.844 1.134.109.095.19.189.245.256 0 0-1.864 1.525-2.408 1.943-.055.04-.096.162 0 .23 0 0 .408.35.653.526.095.067.136.108.285.094 1.13-.094 2.613-.85 3.007-2.334h.014l1.918-1.551-1.075 2.887a.187.187 0 0 0 .055.202l.775.58c.068.054.163.04.231-.013l2.368-2.118c0 .242.027.54.082.715.272.89 1.02 1.39 1.591 1.497 1.687.324 4.164-1.295 4.871-3.737a3.945 3.945 0 0 0 1.034-.23l-1.102 2.996a.172.172 0 0 0 .068.202l.844.62a.19.19 0 0 0 .15.028.173.173 0 0 0 .122-.095c.353-.647 1.673-2.873 4.503-4.398-.49 1.295-.789 2.105-1.428 3.872-.028.081 0 .162.068.202l.884.58c.068.041.15.041.204 0 .735-.553 3.796-2.738 6.245-3.4a.147.147 0 0 0 .122-.148c.028-.053 0-.12-.068-.161Z" fill="#000"/></g><defs><clipPath id="a"><path fill="#fff" d="M0 0h125.177v20H0z"/></clipPath><clipPath id="b"><path fill="#fff" transform="translate(39 28)" d="M0 0h48v16H0z"/></clipPath></defs></svg>