<svg xmlns="http://www.w3.org/2000/svg" color-interpolation-filters="sRGB" style="margin:auto" version="1.0" viewBox="0 0 64 64"><path d="M46.383 31.123c.688-.309 5.575-2.739 5.575-10.451 0-7.177-5.337-13.82-17.781-13.82H12.815c-1.757 0-2.22.843-2.22 2.22v45.857c0 1.376.463 2.219 2.22 2.219h22.43c10.603 0 18.16-4.957 18.16-14.649 0-8.244-6.405-11.152-7.022-11.376ZM35.399 46.305H22.576V17.611h11.601c3.975 0 6.335.843 6.335 4.283 0 2.978-1.911 4.58-6.335 4.58h-.997c-1.756 0-2.205.842-2.205 2.204v5.801c0 1.376.449 2.219 2.205 2.219h1.755c3.666 0 6.334 1.067 6.334 4.649 0 3.442-2.134 4.958-5.87 4.958Z" class="tp-name" data-gra="path-name" style="fill:#000;paint-order:fill"/></svg>