<?xml version="1.0" encoding="utf-8"?>
<svg version="1.0" viewBox="0 0 64 64" color-interpolation-filters="sRGB" style="margin:auto" xmlns="http://www.w3.org/2000/svg">
  <rect x="0" width="64" height="64" fill="url(#pattern-1undefined)" y="0&#10;"/>
  <rect width="100%" height="100%" fill="none" class="background"/>
  <g fill="#fff" class="basesvg" transform="matrix(1.116622, 0, 0, 1.116625, -47.70882, -107.1203)" style="">
    <path d="M 83.4150052 123.96500084 C 83.90500519999999 123.74500084 87.3850052 122.01500084 87.3850052 116.52500084 C 87.3850052 111.41500084 83.5850052 106.68500084 74.7250052 106.68500084 L 59.5150052 106.68500084 C 58.2650052 106.68500084 57.9350052 107.28500084 57.9350052 108.26500084 L 57.9350052 140.91500084 C 57.9350052 141.89500084 58.2650052 142.49500084000002 59.5150052 142.49500084000002 L 75.4850052 142.49500084000002 C 83.0350052 142.49500084000002 88.4150052 138.96500084000002 88.4150052 132.06500084 C 88.4150052 126.19500084 83.8550052 124.12500084000001 83.4150052 123.96500084000002 L 83.4150052 123.96500084 Z M 75.5950052 134.77500084 L 66.46500520000001 134.77500084 L 66.46500520000001 114.34500083999998 L 74.72500520000001 114.34500083999998 C 77.55500520000001 114.34500083999998 79.23500520000002 114.94500083999998 79.23500520000002 117.39500083999998 C 79.23500520000002 119.51500083999998 77.87500520000002 120.65500083999999 74.72500520000001 120.65500083999999 L 74.01500520000002 120.65500083999999 C 72.76500520000002 120.65500083999999 72.44500520000003 121.25500083999998 72.44500520000003 122.22500083999998 L 72.44500520000003 126.35500083999997 C 72.44500520000003 127.33500083999998 72.76500520000002 127.93500083999997 74.01500520000002 127.93500083999997 L 75.26500520000002 127.93500083999997 C 77.87500520000002 127.93500083999997 79.77500520000002 128.69500083999998 79.77500520000002 131.24500083999996 C 79.77500520000002 133.69500083999995 78.25500520000003 134.77500083999996 75.59500520000003 134.77500083999996 L 75.5950052 134.77500084 Z" data-gra="path-name" class="tp-name" style="fill: rgb(0, 0, 0); paint-order: fill;"/>
  </g>
  <pattern id="pattern-1undefined" x="7" y="7" width="5" height="5" patternUnits="userSpaceOnUse">
    <circle cx="0.3" cy="0.3" r="0.3" fill="#aaa"/>
  </pattern>
</svg>