<?xml version="1.0" encoding="utf-8"?>
<svg version="1.0" viewBox="6.062 4.163 224.13 35.81" color-interpolation-filters="sRGB" style="margin:auto" xmlns="http://www.w3.org/2000/svg">
  <rect width="100%" height="100%" fill="none" class="background"/>
  <g fill="#fff" class="basesvg" transform="matrix(1, 0, 0, 1.000003, -51.873047, -102.522392)" style="">
    <path d="M 83.4150052 123.96500084 C 83.90500519999999 123.74500084 87.3850052 122.01500084 87.3850052 116.52500084 C 87.3850052 111.41500084 83.5850052 106.68500084 74.7250052 106.68500084 L 59.5150052 106.68500084 C 58.2650052 106.68500084 57.9350052 107.28500084 57.9350052 108.26500084 L 57.9350052 140.91500084 C 57.9350052 141.89500084 58.2650052 142.49500084000002 59.5150052 142.49500084000002 L 75.4850052 142.49500084000002 C 83.0350052 142.49500084000002 88.4150052 138.96500084000002 88.4150052 132.06500084 C 88.4150052 126.19500084 83.8550052 124.12500084000001 83.4150052 123.96500084000002 L 83.4150052 123.96500084 Z M 75.5950052 134.77500084 L 66.46500520000001 134.77500084 L 66.46500520000001 114.34500083999998 L 74.72500520000001 114.34500083999998 C 77.55500520000001 114.34500083999998 79.23500520000002 114.94500083999998 79.23500520000002 117.39500083999998 C 79.23500520000002 119.51500083999998 77.87500520000002 120.65500083999999 74.72500520000001 120.65500083999999 L 74.01500520000002 120.65500083999999 C 72.76500520000002 120.65500083999999 72.44500520000003 121.25500083999998 72.44500520000003 122.22500083999998 L 72.44500520000003 126.35500083999997 C 72.44500520000003 127.33500083999998 72.76500520000002 127.93500083999997 74.01500520000002 127.93500083999997 L 75.26500520000002 127.93500083999997 C 77.87500520000002 127.93500083999997 79.77500520000002 128.69500083999998 79.77500520000002 131.24500083999996 C 79.77500520000002 133.69500083999995 78.25500520000003 134.77500083999996 75.59500520000003 134.77500083999996 L 75.5950052 134.77500084 Z" data-gra="path-name" class="tp-name" style="fill: rgb(0, 0, 0); paint-order: fill;"/>
    <path d="M 121.995 106.745 L 116.615 106.745 C 115.635 106.745 115.045 107.065 115.045 108.315 L 115.045 130.375 C 115.045 133.805 112.755 135.073 109.175 135.073 C 105.585 135.073 103.355 133.805 103.355 130.375 L 103.355 108.315 C 103.355 107.065 102.765 106.745 101.785 106.745 L 96.405 106.745 C 95.425 106.745 94.825 107.065 94.825 108.315 L 94.825 131.575 C 94.825 140.105 102.705 142.495 109.175 142.495 C 115.635 142.495 123.575 140.105 123.575 131.575 L 123.575 108.315 C 123.575 107.065 122.975 106.745 121.995 106.745 Z" data-gra="path-name" class="tp-name" style="fill: rgb(0, 0, 0); paint-order: fill;"/>
    <path d="M 146.7150052 135.05500084 L 143.29500520000002 135.05500084 L 143.29500520000002 114.29500083999999 L 146.5550052 114.29500083999999 C 147.8050052 114.29500083999999 148.13500520000002 113.69500083999999 148.13500520000002 112.71500083999999 L 148.13500520000002 108.31500083999998 C 148.13500520000002 107.34500083999998 147.8050052 106.74500083999999 146.5550052 106.74500083999999 L 131.45500520000002 106.74500083999999 C 130.20500520000002 106.74500083999999 129.8750052 107.34500083999998 129.8750052 108.31500083999998 L 129.8750052 112.71500083999999 C 129.8750052 113.69500083999999 130.20500520000002 114.29500083999999 131.45500520000002 114.29500083999999 L 134.76500520000002 114.29500083999999 L 134.76500520000002 135.05500084 L 131.34500520000003 135.05500084 C 130.09500520000003 135.05500084 129.76500520000002 135.64500084 129.76500520000002 136.62500083999998 L 129.76500520000002 140.91500083999998 C 129.76500520000002 141.89500083999997 130.09500520000003 142.49500084 131.34500520000003 142.49500084 L 146.71500520000004 142.49500084 C 147.96500520000004 142.49500084 148.29500520000005 141.89500084 148.29500520000005 140.91500083999998 L 148.29500520000005 136.62500083999998 C 148.29500520000005 135.64500084 147.96500520000004 135.05500084 146.71500520000004 135.05500084 L 146.7150052 135.05500084 Z" data-gra="path-name" class="tp-name" style="fill: rgb(0, 0, 0); paint-order: fill;"/>
    <path d="M 179.48500520000002 134.88500084 L 163.8350052 134.88500084 L 163.8350052 108.31500084000001 C 163.8350052 107.06500084000001 163.23500520000002 106.74500084000002 162.2550052 106.74500084000002 L 156.8750052 106.74500084000002 C 155.9050052 106.74500084000002 155.3050052 107.06500084000001 155.3050052 108.31500084000001 L 155.3050052 140.91500084 C 155.3050052 141.89500084 155.63500520000002 142.49500084000002 156.8750052 142.49500084000002 L 179.4850052 142.49500084000002 C 180.7350052 142.49500084000002 181.05500519999998 141.89500084000002 181.05500519999998 140.91500084 L 181.05500519999998 136.46500084000002 C 181.05500519999998 135.48500084000003 180.7350052 134.88500084 179.4850052 134.88500084 L 179.48500520000002 134.88500084 Z" data-gra="path-name" class="tp-name" style="fill: rgb(0, 0, 0); paint-order: fill;"/>
    <path d="M 200.67500520000002 106.74500084 L 188.50500520000003 106.74500084 C 187.25500520000003 106.74500084 186.92500520000002 107.34500084 186.92500520000002 108.31500084 L 186.92500520000002 140.91500084 C 186.92500520000002 141.89500084 187.25500520000003 142.49500084000002 188.50500520000003 142.49500084000002 L 200.67500520000002 142.49500084000002 C 207.13500520000002 142.49500084000002 215.2850052 138.80500084000002 215.2850052 130.26500084000003 L 215.2850052 118.96500084000003 C 215.2850052 110.49500084000003 207.1350052 106.74500084000003 200.6750052 106.74500084000003 L 200.67500520000002 106.74500084 Z M 206.75500520000003 129.50500084 C 206.75500520000003 132.98500084 204.25500520000003 134.94500084 200.67500520000002 134.94500084 L 195.45500520000002 134.94500084 L 195.45500520000002 114.29500084 L 200.67500520000002 114.29500084 C 204.25500520000003 114.29500084 206.75500520000003 116.30500084 206.75500520000003 119.72500084 L 206.75500520000003 129.50500084 Z" data-gra="path-name" class="tp-name" style="paint-order: fill; fill: rgb(0, 0, 0);"/>
    <path d="M 248.16500520000002 134.88500084 L 230.82500520000002 134.88500084 L 230.82500520000002 127.71500084 L 245.3950052 127.71500084 C 246.6450052 127.71500084 246.9650052 127.11500084000001 246.9650052 126.14500084000001 L 246.9650052 121.90500084000001 C 246.9650052 120.92500084000001 246.6450052 120.32500084000002 245.3950052 120.32500084000002 L 230.82500520000002 120.32500084000002 L 230.82500520000002 114.40500084000001 L 247.23500520000002 114.40500084000001 C 248.48500520000002 114.40500084000001 248.81500520000003 113.80500084000002 248.81500520000003 112.82500084000002 L 248.81500520000003 108.31500084000001 C 248.81500520000003 107.34500084000001 248.48500520000002 106.74500084000002 247.23500520000002 106.74500084000002 L 223.82500520000002 106.74500084000002 C 222.57500520000002 106.74500084000002 222.2450052 107.34500084000001 222.2450052 108.31500084000001 L 222.2450052 140.91500084 C 222.2450052 141.89500084 222.57500520000002 142.49500084000002 223.82500520000002 142.49500084000002 L 248.16500520000002 142.49500084000002 C 249.41500520000002 142.49500084000002 249.73500520000002 141.89500084000002 249.73500520000002 140.91500084 L 249.73500520000002 136.46500084000002 C 249.73500520000002 135.48500084000003 249.41500520000002 134.88500084 248.16500520000002 134.88500084 Z" data-gra="path-name" class="tp-name" style="fill: rgb(0, 0, 0); paint-order: fill;"/>
    <path d="M 280.49500520000004 134.88500084 L 264.84500520000006 134.88500084 L 264.84500520000006 108.31500084000001 C 264.84500520000006 107.06500084000001 264.24500520000004 106.74500084000002 263.2650052000001 106.74500084000002 L 257.8850052000001 106.74500084000002 C 256.91500520000005 106.74500084000002 256.3150052000001 107.06500084000001 256.3150052000001 108.31500084000001 L 256.3150052000001 140.91500084 C 256.3150052000001 141.89500084 256.6350052000001 142.49500084000002 257.8850052000001 142.49500084000002 L 280.4950052000001 142.49500084000002 C 281.7450052000001 142.49500084000002 282.0650052000001 141.89500084000002 282.0650052000001 140.91500084 L 282.0650052000001 136.46500084000002 C 282.0650052000001 135.48500084000003 281.7450052000001 134.88500084 280.4950052000001 134.88500084 L 280.49500520000004 134.88500084 Z" data-gra="path-name" class="tp-name" style="fill: rgb(0, 0, 0); paint-order: fill;"/>
  </g>
</svg>